<svg width="346" height="360" viewBox="0 0 346 360" fill="none" xmlns="http://www.w3.org/2000/svg">
<path d="M171.461 44.8223C173.25 40.9522 178.75 40.9522 180.539 44.8224L213.566 116.296C214.46 118.231 216.482 119.386 218.603 119.174L298.922 111.133C303.251 110.699 306.03 115.619 303.423 119.103L256.361 182.005C255.032 183.781 255.032 186.219 256.361 187.995L303.423 250.897C306.03 254.381 303.251 259.301 298.922 258.867L218.603 250.826C216.482 250.614 214.46 251.769 213.566 253.704L180.539 325.178C178.75 329.048 173.25 329.048 171.461 325.178L138.434 253.704C137.54 251.769 135.518 250.614 133.397 250.826L53.0784 258.867C48.7491 259.301 45.9703 254.381 48.5768 250.897L95.6389 187.995C96.9676 186.219 96.9676 183.781 95.6389 182.005L48.5768 119.103C45.9703 115.619 48.7491 110.699 53.0784 111.133L133.397 119.174C135.518 119.386 137.54 118.231 138.434 116.296L171.461 44.8223Z" fill="#7368F4"/>
<ellipse cx="140" cy="184.5" rx="14" ry="17.5" fill="white"/>
<ellipse cx="140" cy="184.5" rx="14" ry="17.5" fill="white"/>
<ellipse cx="140" cy="184.5" rx="14" ry="17.5" fill="white"/>
<ellipse cx="197.899" cy="160.41" rx="14" ry="17.5" transform="rotate(-39.066 197.899 160.41)" fill="white"/>
<ellipse cx="197.899" cy="160.41" rx="14" ry="17.5" transform="rotate(-39.066 197.899 160.41)" fill="white"/>
<ellipse cx="197.899" cy="160.41" rx="14" ry="17.5" transform="rotate(-39.066 197.899 160.41)" fill="white"/>
<circle cx="143" cy="186" r="7" fill="black"/>
<circle cx="201" cy="160" r="7" fill="black"/>
</svg>
