<svg width="346" height="360" viewBox="0 0 346 360" fill="none" xmlns="http://www.w3.org/2000/svg">
<path d="M171.315 47.5607C172.933 43.2238 179.067 43.2238 180.685 47.5607L204.022 110.132C205.035 112.848 208.137 114.136 210.775 112.937L272.985 84.6674C277.247 82.7304 281.596 87.1899 279.552 91.4022L250.625 151.018C249.319 153.708 250.651 156.935 253.474 157.921L317.486 180.28C321.954 181.84 321.954 188.16 317.486 189.72L253.474 212.079C250.651 213.065 249.319 216.292 250.625 218.982L279.552 278.598C281.596 282.81 277.247 287.27 272.985 285.333L210.775 257.063C208.137 255.864 205.035 257.152 204.022 259.868L180.685 322.439C179.067 326.776 172.933 326.776 171.315 322.439L147.978 259.868C146.965 257.152 143.863 255.864 141.225 257.063L79.0153 285.333C74.7528 287.27 70.4044 282.81 72.4484 278.598L101.375 218.982C102.681 216.292 101.349 213.065 98.5258 212.079L34.5139 189.72C30.0456 188.16 30.0456 181.84 34.5139 180.28L98.5258 157.921C101.349 156.935 102.681 153.708 101.375 151.018L72.4484 91.4022C70.4044 87.1899 74.7528 82.7304 79.0153 84.6674L141.225 112.937C143.863 114.136 146.965 112.848 147.978 110.132L171.315 47.5607Z" fill="#7368F4"/>
<ellipse cx="140" cy="184.5" rx="14" ry="17.5" fill="white"/>
<ellipse cx="140" cy="184.5" rx="14" ry="17.5" fill="white"/>
<ellipse cx="140" cy="184.5" rx="14" ry="17.5" fill="white"/>
<ellipse cx="197.899" cy="160.41" rx="14" ry="17.5" transform="rotate(-39.066 197.899 160.41)" fill="white"/>
<ellipse cx="197.899" cy="160.41" rx="14" ry="17.5" transform="rotate(-39.066 197.899 160.41)" fill="white"/>
<ellipse cx="197.899" cy="160.41" rx="14" ry="17.5" transform="rotate(-39.066 197.899 160.41)" fill="white"/>
<circle cx="143" cy="186" r="7" fill="black"/>
<circle cx="201" cy="160" r="7" fill="black"/>
</svg>
