<svg width="346" height="360" viewBox="0 0 346 360" fill="none" xmlns="http://www.w3.org/2000/svg">
<path d="M171.223 50.4548C172.675 45.7569 179.325 45.7569 180.777 50.4548L198.06 106.37C199.077 109.66 203.037 110.961 205.807 108.915L253.79 73.4811C257.773 70.5403 263.149 74.5549 261.461 79.2086L241.693 133.693C240.494 136.999 242.991 140.477 246.507 140.397L306.251 139.038C311.251 138.924 313.302 145.411 309.145 148.193L260.333 180.844C257.373 182.824 257.373 187.176 260.333 189.156L309.144 221.807C313.302 224.589 311.251 231.076 306.251 230.962L246.507 229.603C242.991 229.523 240.494 233.001 241.693 236.307L261.461 290.791C263.149 295.445 257.773 299.46 253.79 296.519L205.807 261.085C203.037 259.039 199.077 260.34 198.06 263.63L180.777 319.545C179.325 324.243 172.675 324.243 171.223 319.545L153.94 263.63C152.923 260.34 148.963 259.039 146.193 261.085L98.2096 296.519C94.2273 299.46 88.8507 295.445 90.5391 290.791L110.307 236.307C111.506 233.001 109.009 229.523 105.493 229.603L45.7492 230.962C40.7485 231.076 38.6979 224.589 42.8555 221.807L91.6672 189.156C94.6272 187.176 94.6272 182.824 91.6672 180.844L42.8555 148.193C38.6979 145.411 40.7485 138.924 45.7492 139.038L105.493 140.397C109.009 140.477 111.506 136.999 110.307 133.693L90.5391 79.2086C88.8507 74.5549 94.2272 70.5403 98.2095 73.4811L146.193 108.915C148.963 110.961 152.923 109.66 153.94 106.37L171.223 50.4548Z" fill="#7368F4"/>
<ellipse cx="140" cy="184.5" rx="14" ry="17.5" fill="white"/>
<ellipse cx="140" cy="184.5" rx="14" ry="17.5" fill="white"/>
<ellipse cx="140" cy="184.5" rx="14" ry="17.5" fill="white"/>
<ellipse cx="197.899" cy="160.41" rx="14" ry="17.5" transform="rotate(-39.066 197.899 160.41)" fill="white"/>
<ellipse cx="197.899" cy="160.41" rx="14" ry="17.5" transform="rotate(-39.066 197.899 160.41)" fill="white"/>
<ellipse cx="197.899" cy="160.41" rx="14" ry="17.5" transform="rotate(-39.066 197.899 160.41)" fill="white"/>
<circle cx="143" cy="186" r="7" fill="black"/>
<circle cx="201" cy="160" r="7" fill="black"/>
</svg>
