<svg width="346" height="360" viewBox="0 0 346 360" fill="none" xmlns="http://www.w3.org/2000/svg">
<path d="M171.164 53.4111C172.47 48.4381 179.53 48.4381 180.836 53.4111L194.015 103.586C194.994 107.312 199.641 108.578 202.374 105.864L239.764 68.7356C243.428 65.0973 249.532 68.7239 248.088 73.6814L233.735 122.972C232.642 126.724 236.082 130.222 239.851 129.194L290.936 115.263C295.958 113.893 299.469 120.152 295.682 123.724L258.138 159.134C255.256 161.851 256.528 166.68 260.374 167.626L311.263 180.145C316.337 181.393 316.337 188.607 311.263 189.855L260.374 202.374C256.528 203.32 255.256 208.149 258.138 210.866L295.682 246.276C299.469 249.848 295.958 256.107 290.936 254.737L239.851 240.806C236.082 239.778 232.642 243.276 233.735 247.028L248.088 296.319C249.532 301.276 243.428 304.903 239.764 301.264L202.374 264.136C199.641 261.422 194.994 262.688 194.015 266.414L180.836 316.589C179.53 321.562 172.47 321.562 171.164 316.589L157.985 266.414C157.006 262.688 152.359 261.422 149.626 264.136L112.236 301.264C108.572 304.903 102.468 301.276 103.912 296.319L118.265 247.028C119.358 243.276 115.918 239.778 112.149 240.806L61.0636 254.737C56.0417 256.107 52.5307 249.848 56.3175 246.276L93.8625 210.866C96.7438 208.149 95.4722 203.32 91.6263 202.374L40.7374 189.855C35.6632 188.607 35.6632 181.393 40.7374 180.145L91.6263 167.626C95.4722 166.68 96.7438 161.851 93.8625 159.134L56.3176 123.724C52.5307 120.152 56.0417 113.893 61.0637 115.263L112.149 129.194C115.918 130.222 119.358 126.724 118.265 122.972L103.912 73.6814C102.468 68.7239 108.572 65.0973 112.236 68.7356L149.626 105.864C152.359 108.578 157.006 107.312 157.985 103.586L171.164 53.4111Z" fill="#7368F4"/>
<ellipse cx="140" cy="184.5" rx="14" ry="17.5" fill="white"/>
<ellipse cx="140" cy="184.5" rx="14" ry="17.5" fill="white"/>
<ellipse cx="140" cy="184.5" rx="14" ry="17.5" fill="white"/>
<ellipse cx="197.899" cy="160.41" rx="14" ry="17.5" transform="rotate(-39.066 197.899 160.41)" fill="white"/>
<ellipse cx="197.899" cy="160.41" rx="14" ry="17.5" transform="rotate(-39.066 197.899 160.41)" fill="white"/>
<ellipse cx="197.899" cy="160.41" rx="14" ry="17.5" transform="rotate(-39.066 197.899 160.41)" fill="white"/>
<circle cx="143" cy="186" r="7" fill="black"/>
<circle cx="201" cy="160" r="7" fill="black"/>
</svg>
