<svg width="346" height="360" viewBox="0 0 346 360" fill="none" xmlns="http://www.w3.org/2000/svg">
<path d="M171.66 42.5848C173.58 39.229 178.42 39.229 180.34 42.5848L230.526 130.297C230.992 131.111 231.678 131.778 232.504 132.221L322.775 180.593C326.293 182.478 326.293 187.522 322.775 189.407L232.504 237.779C231.678 238.222 230.992 238.889 230.526 239.703L180.34 327.415C178.42 330.771 173.58 330.771 171.66 327.415L121.474 239.703C121.008 238.889 120.322 238.222 119.496 237.779L29.2245 189.407C25.7066 187.522 25.7066 182.478 29.2245 180.593L119.496 132.221C120.322 131.778 121.008 131.111 121.474 130.297L171.66 42.5848Z" fill="#7368F4"/>
<ellipse cx="140" cy="184.5" rx="14" ry="17.5" fill="white"/>
<ellipse cx="140" cy="184.5" rx="14" ry="17.5" fill="white"/>
<ellipse cx="140" cy="184.5" rx="14" ry="17.5" fill="white"/>
<ellipse cx="197.899" cy="160.41" rx="14" ry="17.5" transform="rotate(-39.066 197.899 160.41)" fill="white"/>
<ellipse cx="197.899" cy="160.41" rx="14" ry="17.5" transform="rotate(-39.066 197.899 160.41)" fill="white"/>
<ellipse cx="197.899" cy="160.41" rx="14" ry="17.5" transform="rotate(-39.066 197.899 160.41)" fill="white"/>
<circle cx="143" cy="186" r="7" fill="black"/>
<circle cx="201" cy="160" r="7" fill="black"/>
</svg>
