<svg width="310" height="300" viewBox="0 0 310 300" fill="none" xmlns="http://www.w3.org/2000/svg">
<g clip-path="url(#clip0_112_207)">
<path d="M158.223 15.4548C159.675 10.7569 166.325 10.7569 167.777 15.4548L185.06 71.3697C186.077 74.6596 190.037 75.9609 192.807 73.9153L240.79 38.4811C244.773 35.5403 250.149 39.5549 248.461 44.2086L228.693 98.6932C227.494 101.999 229.991 105.477 233.507 105.397L293.251 104.038C298.251 103.924 300.302 110.411 296.145 113.193L247.333 145.844C244.373 147.824 244.373 152.176 247.333 154.156L296.144 186.807C300.302 189.589 298.251 196.076 293.251 195.962L233.507 194.603C229.991 194.523 227.494 198.001 228.693 201.307L248.461 255.791C250.149 260.445 244.773 264.46 240.79 261.519L192.807 226.085C190.037 224.039 186.077 225.34 185.06 228.63L167.777 284.545C166.325 289.243 159.675 289.243 158.223 284.545L140.94 228.63C139.923 225.34 135.963 224.039 133.193 226.085L85.2096 261.519C81.2273 264.46 75.8507 260.445 77.5391 255.791L97.307 201.307C98.5063 198.001 96.0087 194.523 92.493 194.603L32.7492 195.962C27.7485 196.076 25.6979 189.589 29.8555 186.807L78.6672 154.156C81.6272 152.176 81.6272 147.824 78.6672 145.844L29.8555 113.193C25.6979 110.411 27.7485 103.924 32.7492 104.038L92.493 105.397C96.0087 105.477 98.5063 101.999 97.307 98.6932L77.5391 44.2086C75.8507 39.5549 81.2272 35.5403 85.2095 38.4811L133.193 73.9153C135.963 75.9609 139.923 74.6596 140.94 71.3697L158.223 15.4548Z" fill="#FFC877"/>
<ellipse cx="136.902" cy="135.167" rx="14" ry="17.5" transform="rotate(30.1935 136.902 135.167)" fill="white"/>
<ellipse cx="136.902" cy="135.167" rx="14" ry="17.5" transform="rotate(30.1935 136.902 135.167)" fill="white"/>
<ellipse cx="136.902" cy="135.167" rx="14" ry="17.5" transform="rotate(30.1935 136.902 135.167)" fill="white"/>
<ellipse cx="199.061" cy="143.464" rx="14" ry="17.5" transform="rotate(-8.87251 199.061 143.464)" fill="white"/>
<ellipse cx="199.061" cy="143.464" rx="14" ry="17.5" transform="rotate(-8.87251 199.061 143.464)" fill="white"/>
<ellipse cx="199.061" cy="143.464" rx="14" ry="17.5" transform="rotate(-8.87251 199.061 143.464)" fill="white"/>
<circle cx="132.571" cy="138.571" r="7" transform="rotate(30.1935 132.571 138.571)" fill="black"/>
<circle cx="196.571" cy="144.571" r="7" transform="rotate(30.1935 196.571 144.571)" fill="black"/>
</g>
<defs>
<clipPath id="clip0_112_207">
<rect width="310" height="300" fill="white"/>
</clipPath>
</defs>
</svg>
