<svg width="854" height="556" viewBox="0 0 854 556" fill="none" xmlns="http://www.w3.org/2000/svg">
<rect width="854" height="556" fill="white"/>
<path d="M720.587 192.265C721.164 190.377 723.836 190.377 724.413 192.265L732.786 219.689C733.188 221.004 734.766 221.531 735.877 220.721L760.103 203.067C761.724 201.886 763.881 203.56 763.139 205.423L752.712 231.606C752.177 232.948 753.198 234.397 754.642 234.345L784.861 233.258C786.912 233.184 787.73 235.878 785.985 236.958L761.19 252.299C759.927 253.081 759.927 254.919 761.19 255.701L785.985 271.042C787.73 272.122 786.912 274.816 784.861 274.742L754.642 273.655C753.198 273.603 752.177 275.052 752.712 276.394L763.139 302.577C763.881 304.44 761.724 306.114 760.103 304.933L735.877 287.279C734.766 286.469 733.188 286.996 732.786 288.311L724.413 315.735C723.836 317.623 721.164 317.623 720.587 315.735L712.214 288.311C711.812 286.996 710.234 286.469 709.123 287.279L684.897 304.933C683.276 306.114 681.119 304.44 681.861 302.577L692.288 276.394C692.823 275.052 691.802 273.603 690.358 273.655L660.139 274.742C658.088 274.816 657.27 272.122 659.015 271.042L683.81 255.701C685.073 254.919 685.073 253.081 683.81 252.299L659.015 236.958C657.27 235.878 658.088 233.184 660.139 233.258L690.358 234.345C691.802 234.397 692.823 232.948 692.288 231.606L681.861 205.423C681.119 203.56 683.276 201.886 684.897 203.067L709.123 220.721C710.234 221.531 711.812 221.004 712.214 219.689L720.587 192.265Z" fill="#FFC877"/>
<ellipse cx="6.56607" cy="8.02724" rx="6.56607" ry="8.02724" transform="matrix(0.873894 0.486117 -0.51991 0.854221 708.56 237.227)" fill="white"/>
<ellipse cx="6.56607" cy="8.02724" rx="6.56607" ry="8.02724" transform="matrix(0.873894 0.486117 -0.51991 0.854221 708.56 237.227)" fill="white"/>
<ellipse cx="6.56607" cy="8.02724" rx="6.56607" ry="8.02724" transform="matrix(0.873894 0.486117 -0.51991 0.854221 708.56 237.227)" fill="white"/>
<ellipse cx="6.63191" cy="7.94221" rx="6.63191" ry="7.94221" transform="matrix(0.989047 -0.147602 0.161153 0.986929 731.761 244.177)" fill="white"/>
<ellipse cx="6.63191" cy="7.94221" rx="6.63191" ry="7.94221" transform="matrix(0.989047 -0.147602 0.161153 0.986929 731.761 244.177)" fill="white"/>
<ellipse cx="6.63191" cy="7.94221" rx="6.63191" ry="7.94221" transform="matrix(0.989047 -0.147602 0.161153 0.986929 731.761 244.177)" fill="white"/>
<ellipse cx="3.28304" cy="3.21089" rx="3.28304" ry="3.21089" transform="matrix(0.873894 0.486117 -0.51991 0.854221 706.871 244.48)" fill="black"/>
<ellipse cx="3.28304" cy="3.21089" rx="3.28304" ry="3.21089" transform="matrix(0.873894 0.486117 -0.51991 0.854221 737.22 247.2)" fill="black"/>
<rect x="15.5" y="12.5" width="823" height="531" stroke="black"/>
<ellipse cx="108" cy="102" rx="47" ry="45" fill="#FFC877"/>
<ellipse cx="113.5" cy="87.5" rx="5.5" ry="6.5" fill="white"/>
<ellipse cx="113.5" cy="87.5" rx="5.5" ry="6.5" fill="white"/>
<ellipse cx="113.5" cy="87.5" rx="5.5" ry="6.5" fill="white"/>
<circle cx="113" cy="88" r="3" fill="black"/>
<ellipse cx="86.5" cy="87.5" rx="5.5" ry="6.5" fill="white"/>
<ellipse cx="86.5" cy="87.5" rx="5.5" ry="6.5" fill="white"/>
<ellipse cx="86.5" cy="87.5" rx="5.5" ry="6.5" fill="white"/>
<circle cx="86" cy="88" r="3" fill="black"/>
<ellipse cx="258" cy="103.5" rx="49" ry="46.5" fill="#BA3B78"/>
<ellipse cx="240" cy="90.5" rx="6" ry="6.5" fill="white"/>
<ellipse cx="240" cy="90.5" rx="6" ry="6.5" fill="white"/>
<ellipse cx="240" cy="90.5" rx="6" ry="6.5" fill="white"/>
<circle cx="239" cy="92" r="3" fill="black"/>
<ellipse cx="267" cy="89.5" rx="6" ry="6.5" fill="white"/>
<ellipse cx="267" cy="89.5" rx="6" ry="6.5" fill="white"/>
<ellipse cx="267" cy="89.5" rx="6" ry="6.5" fill="white"/>
<circle cx="266" cy="91" r="3" fill="black"/>
<ellipse cx="419" cy="106" rx="49" ry="47" fill="#FFD4FB"/>
<circle cx="367.5" cy="63.5" r="12.5" fill="#FFD4FB"/>
<ellipse cx="382" cy="37.5" rx="7" ry="6.5" fill="#FFD4FB"/>
<circle cx="393" cy="56" r="5" fill="#FFD4FB"/>
<ellipse cx="361" cy="90.5" rx="7" ry="6.5" fill="#FFD4FB"/>
<circle cx="351.5" cy="27.5" r="3.5" fill="#FFD4FB"/>
<circle cx="406.5" cy="40.5" r="3.5" fill="#FFD4FB"/>
<ellipse cx="424.5" cy="91" rx="5.5" ry="7" fill="white"/>
<ellipse cx="424.5" cy="91" rx="5.5" ry="7" fill="white"/>
<ellipse cx="424.5" cy="91" rx="5.5" ry="7" fill="white"/>
<ellipse cx="424.5" cy="92" rx="2.5" ry="3" fill="black"/>
<ellipse cx="399.5" cy="92" rx="5.5" ry="7" fill="white"/>
<ellipse cx="399.5" cy="92" rx="5.5" ry="7" fill="white"/>
<ellipse cx="399.5" cy="92" rx="5.5" ry="7" fill="white"/>
<ellipse cx="399.5" cy="93" rx="2.5" ry="3" fill="black"/>
<path d="M666.165 113.81C663.734 91.7595 688.343 54 731.644 54C756.839 54 776 65.8927 776 91.4582C776 120.226 734.301 142.204 710.823 145.41C686.921 148.675 668.876 138.415 666.165 113.81Z" fill="#C3247A"/>
<ellipse cx="706.5" cy="96" rx="6.5" ry="8" fill="white"/>
<ellipse cx="706.5" cy="96" rx="6.5" ry="8" fill="white"/>
<ellipse cx="706.5" cy="96" rx="6.5" ry="8" fill="white"/>
<ellipse cx="6.44894" cy="8.09559" rx="6.44894" ry="8.09559" transform="matrix(0.769978 -0.63807 0.62233 0.782755 722.646 82.2842)" fill="white"/>
<ellipse cx="6.44894" cy="8.09559" rx="6.44894" ry="8.09559" transform="matrix(0.769978 -0.63807 0.62233 0.782755 722.646 82.2842)" fill="white"/>
<ellipse cx="6.44894" cy="8.09559" rx="6.44894" ry="8.09559" transform="matrix(0.769978 -0.63807 0.62233 0.782755 722.646 82.2842)" fill="white"/>
<circle cx="707.5" cy="96.5" r="3.5" fill="black"/>
<ellipse cx="734" cy="84.5" rx="3" ry="3.5" fill="black"/>
<path d="M226.163 249.357C221.474 242.9 214.8 228 205.678 228C198.044 228 199.333 250.462 212.661 269.087C243.524 305.334 266.204 307 286.688 307C307.173 307 316 296.542 316 290.085C316 283.628 309.83 274.44 276.511 274.44C243.193 274.44 230.852 255.814 226.163 249.357Z" fill="#FFB4F3"/>
<path d="M416.966 196.375C417.181 194.542 419.819 194.542 420.034 196.375L421.844 211.754C424.18 231.614 439.702 247.271 459.39 249.627L474.637 251.452C476.454 251.67 476.454 254.33 474.637 254.548L459.39 256.373C439.702 258.729 424.18 274.386 421.844 294.245L420.034 309.625C419.819 311.458 417.181 311.458 416.966 309.625L415.156 294.245C412.82 274.386 397.298 258.729 377.61 256.373L362.363 254.548C360.546 254.33 360.546 251.67 362.363 251.452L377.61 249.627C397.298 247.271 412.82 231.614 415.156 211.754L416.966 196.375Z" fill="#B2A7B6"/>
<ellipse cx="6.00464" cy="7.56019" rx="6.00464" ry="7.56019" transform="matrix(0.907149 0.420808 -0.413181 0.910649 267.178 280.104)" fill="white"/>
<ellipse cx="6.00464" cy="7.56019" rx="6.00464" ry="7.56019" transform="matrix(0.907149 0.420808 -0.413181 0.910649 267.178 280.104)" fill="white"/>
<ellipse cx="6.00464" cy="7.56019" rx="6.00464" ry="7.56019" transform="matrix(0.907149 0.420808 -0.413181 0.910649 267.178 280.104)" fill="white"/>
<ellipse cx="5.99714" cy="7.56948" rx="5.99714" ry="7.56948" transform="matrix(0.967817 -0.251654 0.246481 0.969148 288.658 284.662)" fill="white"/>
<ellipse cx="5.99714" cy="7.56948" rx="5.99714" ry="7.56948" transform="matrix(0.967817 -0.251654 0.246481 0.969148 288.658 284.662)" fill="white"/>
<ellipse cx="5.99714" cy="7.56948" rx="5.99714" ry="7.56948" transform="matrix(0.967817 -0.251654 0.246481 0.969148 288.658 284.662)" fill="white"/>
<ellipse cx="3.00232" cy="3.02408" rx="3.00232" ry="3.02408" transform="matrix(0.907149 0.420808 -0.413181 0.910649 268.927 286.63)" fill="black"/>
<ellipse cx="3.00232" cy="3.02408" rx="3.00232" ry="3.02408" transform="matrix(0.907149 0.420808 -0.413181 0.910649 296.134 286.87)" fill="black"/>
<ellipse cx="407" cy="254.5" rx="6" ry="7.5" fill="white"/>
<ellipse cx="407" cy="254.5" rx="6" ry="7.5" fill="white"/>
<ellipse cx="407" cy="254.5" rx="6" ry="7.5" fill="white"/>
<ellipse cx="6.01957" cy="7.54161" rx="6.01957" ry="7.54161" transform="matrix(0.772991 -0.634417 0.626005 0.779819 417.782 245.922)" fill="white"/>
<ellipse cx="6.01957" cy="7.54161" rx="6.01957" ry="7.54161" transform="matrix(0.772991 -0.634417 0.626005 0.779819 417.782 245.922)" fill="white"/>
<ellipse cx="6.01957" cy="7.54161" rx="6.01957" ry="7.54161" transform="matrix(0.772991 -0.634417 0.626005 0.779819 417.782 245.922)" fill="white"/>
<circle cx="408" cy="255" r="3" fill="black"/>
<ellipse cx="429" cy="247.5" rx="3" ry="2.5" fill="black"/>
<path d="M571.131 318.511C574.628 318.556 577.91 317.422 580.618 315.458C584.693 312.502 587.459 307.672 587.689 302.2C587.691 302.187 587.693 302.174 587.694 302.161C587.695 302.148 587.696 302.135 587.696 302.122L587.696 302.103C587.697 302.089 587.697 302.076 587.697 302.063L588.383 282.506L606.014 288.777C606.032 288.784 606.049 288.788 606.066 288.794C606.074 288.796 606.081 288.799 606.09 288.802C614.356 291.699 623.516 287.014 626.531 278.336C629.552 269.654 625.294 260.192 617.05 257.211L617.03 257.202C617.014 257.195 617.001 257.19 616.985 257.187L599.369 250.894L610.933 235.212C616.365 227.845 615.137 217.373 608.193 211.879C601.249 206.386 591.177 207.904 585.734 215.269L574.158 230.931L563.669 214.957C558.74 207.46 548.781 205.671 541.467 210.976C534.154 216.281 532.207 226.706 537.127 234.22L547.587 250.194L529.552 256.012C529.546 256.016 529.538 256.02 529.53 256.023C529.519 256.027 529.507 256.03 529.497 256.032C521.048 258.785 516.147 268.127 518.563 276.885C520.978 285.643 529.808 290.561 538.266 287.882C538.273 287.88 538.281 287.878 538.288 287.876L538.319 287.868L538.332 287.864L556.374 282.072L555.713 301.622C555.714 301.632 555.713 301.642 555.713 301.652C555.712 301.663 555.712 301.673 555.713 301.682C555.429 310.85 562.34 318.398 571.131 318.511Z" fill="#7CE1A7"/>
<ellipse cx="556.5" cy="263.501" rx="7.5" ry="9.5" fill="white"/>
<ellipse cx="556.5" cy="263.501" rx="7.5" ry="9.5" fill="white"/>
<ellipse cx="556.5" cy="263.501" rx="7.5" ry="9.5" fill="white"/>
<ellipse cx="7.66327" cy="9.67849" rx="7.66327" ry="9.67849" transform="matrix(0.760619 -0.649198 0.611049 0.791593 575.363 247.156)" fill="white"/>
<ellipse cx="7.66327" cy="9.67849" rx="7.66327" ry="9.67849" transform="matrix(0.760619 -0.649198 0.611049 0.791593 575.363 247.156)" fill="white"/>
<ellipse cx="7.66327" cy="9.67849" rx="7.66327" ry="9.67849" transform="matrix(0.760619 -0.649198 0.611049 0.791593 575.363 247.156)" fill="white"/>
<ellipse cx="557.5" cy="264.001" rx="3.5" ry="4" fill="black"/>
<circle cx="589" cy="250.001" r="4" fill="black"/>
<rect width="91.5636" height="93.9474" transform="matrix(0.999959 -0.00900656 0.00834375 0.999965 62 207.824)" fill="#6DB9FF"/>
<ellipse cx="7.64139" cy="9.92191" rx="7.64139" ry="9.92191" transform="matrix(0.998582 0.0532255 -0.0493182 0.998783 80.6973 239.929)" fill="white"/>
<ellipse cx="7.64139" cy="9.92191" rx="7.64139" ry="9.92191" transform="matrix(0.998582 0.0532255 -0.0493182 0.998783 80.6973 239.929)" fill="white"/>
<ellipse cx="7.64139" cy="9.92191" rx="7.64139" ry="9.92191" transform="matrix(0.998582 0.0532255 -0.0493182 0.998783 80.6973 239.929)" fill="white"/>
<ellipse cx="7.64515" cy="9.91738" rx="7.64515" ry="9.91738" transform="matrix(0.991863 -0.127312 0.118078 0.993004 114.903 241.223)" fill="white"/>
<ellipse cx="7.64515" cy="9.91738" rx="7.64515" ry="9.91738" transform="matrix(0.991863 -0.127312 0.118078 0.993004 114.903 241.223)" fill="white"/>
<ellipse cx="7.64515" cy="9.91738" rx="7.64515" ry="9.91738" transform="matrix(0.991863 -0.127312 0.118078 0.993004 114.903 241.223)" fill="white"/>
<ellipse cx="3.82069" cy="3.96876" rx="3.82069" ry="3.96876" transform="matrix(0.998582 0.0532255 -0.0493182 0.998783 85.7285 248.714)" fill="black"/>
<ellipse cx="3.86273" cy="3.92786" rx="3.86273" ry="3.92786" transform="matrix(0.83852 0.544871 -0.515741 0.856745 124.09 247.127)" fill="black"/>
<path d="M617 89.3446C617 64.8919 606.182 56 595.364 56C585.202 56 584.546 73.4662 574.056 73.4662C552.561 73.4662 544.98 47.5917 535.046 60.4459C529.756 67.2922 538.325 76.9595 542.586 81.0878C546.848 85.2163 555.043 97.2837 537.013 105.541C518.983 113.797 518 122.689 518 131.263C518 139.838 528.818 150 541.275 150C591.43 150 617 113.797 617 89.3446Z" fill="#FFAC5E"/>
<ellipse cx="570.5" cy="89.5" rx="6.5" ry="7.5" fill="white"/>
<ellipse cx="570.5" cy="89.5" rx="6.5" ry="7.5" fill="white"/>
<ellipse cx="570.5" cy="89.5" rx="6.5" ry="7.5" fill="white"/>
<ellipse cx="6.16204" cy="7.64946" rx="6.16204" ry="7.64946" transform="matrix(0.786652 -0.617396 0.642952 0.765906 586.676 76.9756)" fill="white"/>
<ellipse cx="6.16204" cy="7.64946" rx="6.16204" ry="7.64946" transform="matrix(0.786652 -0.617396 0.642952 0.765906 586.676 76.9756)" fill="white"/>
<ellipse cx="6.16204" cy="7.64946" rx="6.16204" ry="7.64946" transform="matrix(0.786652 -0.617396 0.642952 0.765906 586.676 76.9756)" fill="white"/>
<circle cx="572" cy="90" r="3" fill="black"/>
<circle cx="598" cy="79" r="3" fill="black"/>
<path d="M105.141 352.44C105.529 351.79 106.471 351.79 106.859 352.44L130.8 392.589C130.896 392.75 131.035 392.881 131.202 392.966L174.27 415.111C174.994 415.483 174.994 416.517 174.27 416.889L131.202 439.034C131.035 439.119 130.896 439.25 130.8 439.411L106.859 479.56C106.471 480.21 105.529 480.21 105.141 479.56L81.2 439.411C81.1041 439.25 80.965 439.119 80.7984 439.034L37.7297 416.889C37.006 416.517 37.006 415.483 37.7297 415.111L80.7984 392.966C80.965 392.881 81.1041 392.75 81.2 392.589L105.141 352.44Z" fill="#7368F4"/>
<path d="M270.598 353.887C270.96 353.129 272.04 353.129 272.402 353.887L288.712 387.998C288.893 388.377 289.292 388.602 289.711 388.562L329.385 384.723C330.257 384.639 330.808 385.637 330.272 386.33L307.002 416.388C306.723 416.748 306.723 417.252 307.002 417.612L330.272 447.67C330.808 448.363 330.257 449.361 329.385 449.277L289.711 445.438C289.292 445.398 288.893 445.623 288.712 446.002L272.402 480.113C272.04 480.871 270.96 480.871 270.598 480.113L254.288 446.002C254.107 445.623 253.708 445.398 253.289 445.438L213.615 449.277C212.743 449.361 212.192 448.363 212.728 447.67L235.998 417.612C236.277 417.252 236.277 416.748 235.998 416.388L212.728 386.33C212.192 385.637 212.743 384.639 213.615 384.723L253.289 388.562C253.708 388.602 254.107 388.377 254.288 387.998L270.598 353.887Z" fill="#7368F4"/>
<path d="M419.567 355.417C419.896 354.564 421.104 354.564 421.433 355.417L433.528 386.757C433.733 387.289 434.341 387.542 434.863 387.313L467.103 373.154C467.961 372.777 468.819 373.681 468.399 374.518L453.378 404.435C453.105 404.978 453.376 405.637 453.952 405.831L487.193 417.053C488.1 417.359 488.1 418.641 487.193 418.947L453.952 430.169C453.376 430.363 453.105 431.022 453.378 431.565L468.399 461.482C468.819 462.319 467.961 463.223 467.103 462.846L434.863 448.687C434.341 448.458 433.733 448.711 433.528 449.243L421.433 480.583C421.104 481.436 419.896 481.436 419.567 480.583L407.472 449.243C407.267 448.711 406.659 448.458 406.137 448.687L373.897 462.846C373.039 463.223 372.181 462.319 372.601 461.482L387.622 431.565C387.895 431.022 387.624 430.363 387.048 430.169L353.807 418.947C352.9 418.641 352.9 417.359 353.807 417.053L387.048 405.831C387.624 405.637 387.895 404.978 387.622 404.435L372.601 374.518C372.181 373.681 373.039 372.777 373.897 373.154L406.137 387.313C406.659 387.542 407.267 387.289 407.472 386.757L419.567 355.417Z" fill="#7368F4"/>
<path d="M579.548 360.978C579.844 360.051 581.156 360.051 581.452 360.978L590.907 390.538C591.113 391.183 591.888 391.441 592.44 391.047L618.681 372.319C619.485 371.746 620.545 372.56 620.198 373.485L609.358 402.36C609.109 403.023 609.608 403.727 610.316 403.712L643.068 402.992C644.076 402.969 644.479 404.284 643.633 404.831L616.827 422.16C616.218 422.554 616.218 423.446 616.827 423.84L643.633 441.169C644.479 441.716 644.076 443.031 643.068 443.008L610.316 442.288C609.608 442.273 609.109 442.977 609.358 443.64L620.198 472.515C620.545 473.44 619.485 474.254 618.681 473.681L592.44 454.953C591.888 454.559 591.113 454.817 590.907 455.462L581.452 485.022C581.156 485.949 579.844 485.949 579.548 485.022L570.093 455.462C569.887 454.817 569.112 454.559 568.56 454.953L542.319 473.681C541.515 474.254 540.455 473.44 540.802 472.515L551.642 443.64C551.891 442.977 551.392 442.273 550.684 442.288L517.932 443.008C516.924 443.031 516.521 441.716 517.367 441.169L544.173 423.84C544.782 423.446 544.782 422.554 544.173 422.16L517.367 404.831C516.521 404.284 516.924 402.969 517.932 402.992L550.684 403.712C551.392 403.727 551.891 403.023 551.642 402.36L540.802 373.485C540.455 372.56 541.515 371.746 542.319 372.319L568.56 391.047C569.112 391.441 569.887 391.183 570.093 390.538L579.548 360.978Z" fill="#7368F4"/>
<path d="M735.035 361.523C735.304 360.542 736.696 360.542 736.965 361.523L744.689 389.741C744.889 390.471 745.796 390.723 746.343 390.201L768.25 369.328C768.994 368.619 770.196 369.359 769.897 370.343L761.466 398.125C761.239 398.873 761.919 399.581 762.676 399.383L792.665 391.535C793.678 391.27 794.365 392.542 793.589 393.244L771.489 413.244C770.892 413.784 771.147 414.773 771.931 414.958L801.877 422.027C802.904 422.269 802.904 423.731 801.877 423.973L771.931 431.042C771.147 431.227 770.892 432.216 771.489 432.756L793.589 452.756C794.365 453.458 793.678 454.73 792.665 454.465L762.676 446.617C761.919 446.419 761.239 447.127 761.466 447.875L769.897 475.657C770.196 476.641 768.994 477.381 768.25 476.672L746.343 455.799C745.796 455.277 744.889 455.529 744.689 456.259L736.965 484.477C736.696 485.458 735.304 485.458 735.035 484.477L727.311 456.259C727.111 455.529 726.204 455.277 725.657 455.799L703.75 476.672C703.006 477.381 701.804 476.641 702.103 475.657L710.534 447.875C710.761 447.127 710.081 446.419 709.324 446.617L679.335 454.465C678.322 454.73 677.635 453.458 678.411 452.756L700.511 432.756C701.108 432.216 700.853 431.227 700.069 431.042L670.123 423.973C669.096 423.731 669.096 422.269 670.123 422.027L700.069 414.958C700.853 414.773 701.108 413.784 700.511 413.244L678.411 393.244C677.635 392.542 678.322 391.27 679.335 391.535L709.324 399.383C710.081 399.581 710.761 398.873 710.534 398.125L702.103 370.343C701.804 369.359 703.006 368.619 703.75 369.328L725.657 390.201C726.204 390.723 727.111 390.471 727.311 389.741L735.035 361.523Z" fill="#7368F4"/>
<ellipse cx="93" cy="419" rx="6" ry="7" fill="white"/>
<ellipse cx="93" cy="419" rx="6" ry="7" fill="white"/>
<ellipse cx="93" cy="419" rx="6" ry="7" fill="white"/>
<ellipse cx="5.73262" cy="7.14492" rx="5.73262" ry="7.14492" transform="matrix(0.987026 -0.160559 0.174232 0.984705 112 410.841)" fill="white"/>
<ellipse cx="5.73262" cy="7.14492" rx="5.73262" ry="7.14492" transform="matrix(0.987026 -0.160559 0.174232 0.984705 112 410.841)" fill="white"/>
<ellipse cx="5.73262" cy="7.14492" rx="5.73262" ry="7.14492" transform="matrix(0.987026 -0.160559 0.174232 0.984705 112 410.841)" fill="white"/>
<ellipse cx="95" cy="419.5" rx="3" ry="3.5" fill="black"/>
<ellipse cx="2.87212" cy="3.45786" rx="2.87212" ry="3.45786" transform="matrix(0.961333 -0.275388 0.212452 0.977171 117.098 415.572)" fill="black"/>
<ellipse cx="258.5" cy="415.5" rx="5.5" ry="7.5" fill="white"/>
<ellipse cx="258.5" cy="415.5" rx="5.5" ry="7.5" fill="white"/>
<ellipse cx="258.5" cy="415.5" rx="5.5" ry="7.5" fill="white"/>
<ellipse cx="5.73262" cy="7.14492" rx="5.73262" ry="7.14492" transform="matrix(0.780765 -0.624824 0.635592 0.772025 272.765 403.821)" fill="white"/>
<ellipse cx="5.73262" cy="7.14492" rx="5.73262" ry="7.14492" transform="matrix(0.780765 -0.624824 0.635592 0.772025 272.765 403.821)" fill="white"/>
<ellipse cx="5.73262" cy="7.14492" rx="5.73262" ry="7.14492" transform="matrix(0.780765 -0.624824 0.635592 0.772025 272.765 403.821)" fill="white"/>
<ellipse cx="283.887" cy="404.891" rx="3" ry="2.5" transform="rotate(45.3119 283.887 404.891)" fill="black"/>
<ellipse cx="260.943" cy="415.358" rx="3" ry="2.5" transform="rotate(99.1086 260.943 415.358)" fill="black"/>
<ellipse cx="407" cy="419" rx="6" ry="7" fill="white"/>
<ellipse cx="407" cy="419" rx="6" ry="7" fill="white"/>
<ellipse cx="407" cy="419" rx="6" ry="7" fill="white"/>
<ellipse cx="5.73262" cy="7.14492" rx="5.73262" ry="7.14492" transform="matrix(0.951697 -0.307037 0.320207 0.947348 424 409.521)" fill="white"/>
<ellipse cx="5.73262" cy="7.14492" rx="5.73262" ry="7.14492" transform="matrix(0.951697 -0.307037 0.320207 0.947348 424 409.521)" fill="white"/>
<ellipse cx="5.73262" cy="7.14492" rx="5.73262" ry="7.14492" transform="matrix(0.951697 -0.307037 0.320207 0.947348 424 409.521)" fill="white"/>
<ellipse cx="409.5" cy="420" rx="2.5" ry="3" fill="black"/>
<ellipse cx="434.2" cy="415.552" rx="2.5" ry="3" transform="rotate(-15.2256 434.2 415.552)" fill="black"/>
<ellipse cx="566.5" cy="422" rx="5.5" ry="8" fill="white"/>
<ellipse cx="566.5" cy="422" rx="5.5" ry="8" fill="white"/>
<ellipse cx="566.5" cy="422" rx="5.5" ry="8" fill="white"/>
<ellipse cx="5.73262" cy="7.14492" rx="5.73262" ry="7.14492" transform="matrix(0.780765 -0.624824 0.635592 0.772025 582 410.315)" fill="white"/>
<ellipse cx="5.73262" cy="7.14492" rx="5.73262" ry="7.14492" transform="matrix(0.780765 -0.624824 0.635592 0.772025 582 410.315)" fill="white"/>
<ellipse cx="5.73262" cy="7.14492" rx="5.73262" ry="7.14492" transform="matrix(0.780765 -0.624824 0.635592 0.772025 582 410.315)" fill="white"/>
<ellipse cx="568" cy="422.5" rx="3" ry="3.5" fill="black"/>
<circle cx="591.5" cy="411.5" r="2.5" fill="black"/>
<path d="M579.548 360.978C579.844 360.051 581.156 360.051 581.452 360.978L590.907 390.538C591.113 391.183 591.888 391.441 592.44 391.047L618.681 372.319C619.485 371.746 620.545 372.56 620.198 373.485L609.358 402.36C609.109 403.023 609.608 403.727 610.316 403.712L643.068 402.992C644.076 402.969 644.479 404.284 643.633 404.831L616.827 422.16C616.218 422.554 616.218 423.446 616.827 423.84L643.633 441.169C644.479 441.716 644.076 443.031 643.068 443.008L610.316 442.288C609.608 442.273 609.109 442.977 609.358 443.64L620.198 472.515C620.545 473.44 619.485 474.254 618.681 473.681L592.44 454.953C591.888 454.559 591.113 454.817 590.907 455.462L581.452 485.022C581.156 485.949 579.844 485.949 579.548 485.022L570.093 455.462C569.887 454.817 569.112 454.559 568.56 454.953L542.319 473.681C541.515 474.254 540.455 473.44 540.802 472.515L551.642 443.64C551.891 442.977 551.392 442.273 550.684 442.288L517.932 443.008C516.924 443.031 516.521 441.716 517.367 441.169L544.173 423.84C544.782 423.446 544.782 422.554 544.173 422.16L517.367 404.831C516.521 404.284 516.924 402.969 517.932 402.992L550.684 403.712C551.392 403.727 551.891 403.023 551.642 402.36L540.802 373.485C540.455 372.56 541.515 371.746 542.319 372.319L568.56 391.047C569.112 391.441 569.887 391.183 570.093 390.538L579.548 360.978Z" fill="#7368F4"/>
<ellipse cx="566.5" cy="422" rx="5.5" ry="8" fill="white"/>
<ellipse cx="566.5" cy="422" rx="5.5" ry="8" fill="white"/>
<ellipse cx="566.5" cy="422" rx="5.5" ry="8" fill="white"/>
<ellipse cx="5.73262" cy="7.14492" rx="5.73262" ry="7.14492" transform="matrix(0.780765 -0.624824 0.635592 0.772025 582 410.315)" fill="white"/>
<ellipse cx="5.73262" cy="7.14492" rx="5.73262" ry="7.14492" transform="matrix(0.780765 -0.624824 0.635592 0.772025 582 410.315)" fill="white"/>
<ellipse cx="5.73262" cy="7.14492" rx="5.73262" ry="7.14492" transform="matrix(0.780765 -0.624824 0.635592 0.772025 582 410.315)" fill="white"/>
<ellipse cx="568" cy="422.5" rx="3" ry="3.5" fill="black"/>
<ellipse cx="591" cy="413.5" rx="3" ry="3.5" fill="black"/>
<ellipse cx="722" cy="421" rx="6" ry="7" fill="white"/>
<ellipse cx="722" cy="421" rx="6" ry="7" fill="white"/>
<ellipse cx="722" cy="421" rx="6" ry="7" fill="white"/>
<ellipse cx="5.73262" cy="7.14492" rx="5.73262" ry="7.14492" transform="matrix(0.780765 -0.624824 0.635592 0.772025 737.235 409.099)" fill="white"/>
<ellipse cx="5.73262" cy="7.14492" rx="5.73262" ry="7.14492" transform="matrix(0.780765 -0.624824 0.635592 0.772025 737.235 409.099)" fill="white"/>
<ellipse cx="5.73262" cy="7.14492" rx="5.73262" ry="7.14492" transform="matrix(0.780765 -0.624824 0.635592 0.772025 737.235 409.099)" fill="white"/>
<ellipse cx="723.5" cy="421" rx="2.5" ry="3" fill="black"/>
<ellipse cx="747.5" cy="411" rx="2.5" ry="3" fill="black"/>
<path d="M104.71 170V170.24C104.13 170.24 103.94 170.37 103.77 171L101.84 178.16H101.3L100.01 172.79L98.59 178.16H98.06L96.07 170.99C95.89 170.37 95.7 170.24 95.11 170.24V170H97.92V170.24C97.09 170.24 97.08 170.41 97.23 171L98.64 176.39H98.68L99.81 171.98L99.58 171C99.43 170.37 99.26 170.24 98.76 170.24V170H101.54V170.24C100.65 170.24 100.61 170.41 100.74 171.01L101.91 176.39H101.94L103.34 171C103.49 170.41 103.47 170.24 102.57 170.24V170H104.71ZM106.508 173.99V176.97C106.508 177.61 106.598 177.76 107.128 177.76V178H104.868V177.76C105.448 177.76 105.548 177.61 105.548 176.97L105.538 171.22C105.538 170.58 105.558 170.45 104.958 170.76L104.858 170.55L105.638 170.14L106.378 169.76L106.508 169.9V173.57H106.538C106.988 172.95 107.448 172.52 108.128 172.52C108.838 172.52 109.218 173.03 109.218 173.97V176.97C109.218 177.61 109.308 177.76 109.888 177.76V178H107.648V177.76C108.168 177.76 108.258 177.61 108.258 176.97V174.02C108.258 173.47 108.038 173.22 107.668 173.22C107.248 173.22 106.888 173.5 106.508 173.99ZM111.458 171.54C111.078 171.54 110.808 171.28 110.808 170.93C110.808 170.57 111.078 170.31 111.458 170.31C111.828 170.31 112.098 170.57 112.098 170.93C112.098 171.28 111.828 171.54 111.458 171.54ZM112.018 172.65V176.97C112.018 177.61 112.118 177.76 112.728 177.76V178H110.348V177.76C110.958 177.76 111.058 177.61 111.058 176.97V173.89C111.058 173.22 111.048 173.08 110.468 173.32L110.378 173.09L111.848 172.5L112.018 172.65ZM115.891 175.76H116.171C116.171 177.32 115.861 178.16 114.881 178.16C114.101 178.16 113.691 177.69 113.691 176.29V173.11H112.991V172.74C113.721 172.72 114.181 172.18 114.281 171.24H114.641V172.7H115.841V173.11H114.661V176.03C114.661 176.92 114.751 177.51 115.221 177.51C115.671 177.51 115.891 176.95 115.891 175.76ZM120.078 175.86H120.318C120.108 177.47 119.428 178.16 118.488 178.16C117.358 178.16 116.648 177.09 116.648 175.44C116.648 173.86 117.348 172.52 118.538 172.52C119.708 172.52 120.258 173.62 120.258 175.08H117.618V175.1C117.618 176.46 118.038 177.42 118.868 177.42C119.318 177.42 119.838 177.07 120.078 175.86ZM118.538 172.94C117.938 172.94 117.688 173.67 117.628 174.67H119.298C119.298 173.71 119.128 172.94 118.538 172.94Z" fill="black"/>
<path d="M249.78 175.25L250.63 176.91C250.94 177.52 251.1 177.76 251.83 177.76V178H251.34C250.01 178 249.84 177.87 249.37 176.86L248.06 174.21H247.91C247.72 174.21 247.54 174.2 247.37 174.19V176.97C247.37 177.58 247.51 177.76 248.44 177.76V178H245.19V177.76C246.12 177.76 246.25 177.58 246.25 176.97V171.03C246.25 170.42 246.12 170.24 245.19 170.24V170H248.27C250.06 170 250.86 170.77 250.86 172.04C250.86 173.38 249.93 173.97 248.76 174.15C249.16 174.27 249.43 174.49 249.78 175.25ZM247.37 170.78V173.8C247.55 173.82 247.74 173.83 247.94 173.83C248.96 173.83 249.71 173.33 249.71 172.07C249.71 170.98 249.15 170.41 248.18 170.41C247.97 170.41 247.76 170.44 247.55 170.51C247.42 170.56 247.37 170.66 247.37 170.78ZM255.156 175.86H255.396C255.186 177.47 254.506 178.16 253.566 178.16C252.436 178.16 251.726 177.09 251.726 175.44C251.726 173.86 252.426 172.52 253.616 172.52C254.786 172.52 255.336 173.62 255.336 175.08H252.696V175.1C252.696 176.46 253.116 177.42 253.946 177.42C254.396 177.42 254.916 177.07 255.156 175.86ZM253.616 172.94C253.016 172.94 252.766 173.67 252.706 174.67H254.376C254.376 173.71 254.206 172.94 253.616 172.94ZM260.632 177.37L260.722 177.6L259.242 178.16L259.032 177.99V177.17H258.992C258.732 177.76 258.282 178.16 257.632 178.16C256.672 178.16 256.082 177.09 256.082 175.51C256.082 173.76 256.802 172.52 257.902 172.52C258.402 172.52 258.812 172.73 259.032 173.08V171.21C259.032 170.56 259.042 170.44 258.442 170.73L258.342 170.52L259.872 169.76L260.002 169.9V176.81C260.002 177.48 260.012 177.61 260.632 177.37ZM258.052 177.46C258.492 177.46 258.782 177.13 259.032 176.67V174.82C259.032 173.84 258.732 173.04 258.112 173.04C257.412 173.04 257.112 174.02 257.112 175.27C257.112 176.54 257.392 177.46 258.052 177.46Z" fill="black"/>
<path d="M403.68 170L405.71 176.32H405.73L407.77 170H410.25V170.24C409.31 170.24 409.18 170.42 409.18 171.03V176.97C409.18 177.58 409.31 177.76 410.25 177.76V178H406.99V177.76C407.92 177.76 408.05 177.58 408.05 176.97V170.58H408.02L405.58 178.2H405.13L402.7 170.68H402.67V176.97C402.67 177.58 402.81 177.76 403.74 177.76V178H401.19V177.76C402.12 177.76 402.25 177.58 402.25 176.97V171.03C402.25 170.42 402.12 170.24 401.19 170.24V170H403.68ZM412.562 178.16C411.262 178.16 410.412 177.01 410.412 175.37C410.412 173.76 411.202 172.52 412.562 172.52C413.852 172.52 414.712 173.67 414.712 175.31C414.712 176.92 413.912 178.16 412.562 178.16ZM412.712 177.72C413.422 177.72 413.702 176.78 413.702 175.9C413.702 174.54 413.292 172.96 412.412 172.96C411.702 172.96 411.412 173.9 411.412 174.78C411.412 176.14 411.832 177.72 412.712 177.72ZM417.063 178.16C416.553 178.16 416.183 177.95 415.973 177.8C415.843 177.7 415.763 177.73 415.703 177.85L415.623 178.05H415.403L415.333 175.89H415.553C415.703 177.08 416.273 177.74 416.963 177.74C417.433 177.74 417.683 177.42 417.683 176.91C417.683 176.46 417.473 176.27 416.543 175.52C415.693 174.85 415.403 174.46 415.403 173.89C415.403 173.06 416.003 172.52 416.793 172.52C417.243 172.52 417.553 172.71 417.733 172.86C417.863 172.98 417.963 172.93 417.993 172.81L418.053 172.59H418.283L418.323 174.34H418.103C417.983 173.56 417.543 172.94 416.873 172.94C416.473 172.94 416.213 173.21 416.213 173.61C416.213 174.03 416.473 174.25 417.173 174.8C418.073 175.51 418.503 175.94 418.503 176.7C418.503 177.69 417.833 178.16 417.063 178.16ZM420.934 178.16C419.764 178.16 419.084 177.04 419.084 175.44C419.084 173.78 419.814 172.52 421.104 172.52C421.944 172.52 422.514 173.07 422.514 173.82C422.514 174.24 422.324 174.49 421.984 174.49C421.674 174.49 421.514 174.28 421.514 174.03C421.514 173.86 421.584 173.66 421.584 173.45C421.584 173.11 421.394 172.94 421.094 172.94C420.374 172.94 420.074 173.93 420.074 175.06C420.074 176.36 420.474 177.4 421.294 177.4C421.744 177.4 422.254 177.06 422.434 175.8H422.674C422.564 177.46 421.834 178.16 420.934 178.16ZM427.257 176.87H427.487C427.457 177.63 427.217 178.16 426.557 178.16C425.987 178.16 425.647 177.78 425.647 176.85V176.67C425.417 177.61 424.887 178.16 424.167 178.16C423.457 178.16 423.057 177.63 423.057 176.98C423.057 175.72 424.507 175.16 425.647 174.65V174.07C425.647 173.21 425.367 172.91 424.877 172.91C424.487 172.91 424.207 173.11 424.207 173.44C424.207 173.67 424.347 173.8 424.347 174.03C424.347 174.3 424.177 174.49 423.857 174.49C423.497 174.49 423.307 174.24 423.307 173.87C423.307 173.13 424.027 172.51 425.037 172.51C426.007 172.51 426.607 173.06 426.607 174.14V177.09C426.607 177.58 426.707 177.7 426.867 177.7C427.077 177.7 427.237 177.5 427.257 176.87ZM424.557 177.4C424.957 177.4 425.387 177.03 425.647 176.16V174.98C424.837 175.4 424.017 175.88 424.017 176.71C424.017 177.13 424.207 177.4 424.557 177.4ZM430.299 175.76H430.579C430.579 177.32 430.269 178.16 429.289 178.16C428.509 178.16 428.099 177.69 428.099 176.29V173.11H427.399V172.74C428.129 172.72 428.589 172.18 428.689 171.24H429.049V172.7H430.249V173.11H429.069V176.03C429.069 176.92 429.159 177.51 429.629 177.51C430.079 177.51 430.299 176.95 430.299 175.76ZM433.206 178.16C431.906 178.16 431.056 177.01 431.056 175.37C431.056 173.76 431.846 172.52 433.206 172.52C434.496 172.52 435.356 173.67 435.356 175.31C435.356 176.92 434.556 178.16 433.206 178.16ZM433.356 177.72C434.066 177.72 434.346 176.78 434.346 175.9C434.346 174.54 433.936 172.96 433.056 172.96C432.346 172.96 432.056 173.9 432.056 174.78C432.056 176.14 432.476 177.72 433.356 177.72Z" fill="black"/>
<path d="M553.68 178.16C553.07 178.16 552.51 177.88 552.11 177.49C551.95 177.33 551.83 177.34 551.79 177.57L551.7 178.03H551.45L551.47 175.04H551.73C551.8 176.49 552.56 177.74 553.66 177.74C554.52 177.74 554.89 177.07 554.89 176.45C554.89 175.53 554.18 174.94 553.36 174.32C552.36 173.56 551.52 172.93 551.52 171.75C551.52 170.56 552.38 169.84 553.51 169.84C554.09 169.84 554.49 170.02 554.84 170.35C555.01 170.5 555.15 170.46 555.18 170.24L555.23 169.94H555.47L555.59 172.57H555.34C555.24 171.34 554.64 170.25 553.58 170.25C552.84 170.25 552.44 170.79 552.44 171.41C552.44 172.19 553.02 172.67 553.95 173.37C554.99 174.14 555.81 174.83 555.81 176.06C555.81 177.32 554.91 178.16 553.68 178.16ZM560.539 176.87H560.769C560.739 177.63 560.499 178.16 559.839 178.16C559.269 178.16 558.929 177.78 558.929 176.85V176.67C558.699 177.61 558.169 178.16 557.449 178.16C556.739 178.16 556.339 177.63 556.339 176.98C556.339 175.72 557.789 175.16 558.929 174.65V174.07C558.929 173.21 558.649 172.91 558.159 172.91C557.769 172.91 557.489 173.11 557.489 173.44C557.489 173.67 557.629 173.8 557.629 174.03C557.629 174.3 557.459 174.49 557.139 174.49C556.779 174.49 556.589 174.24 556.589 173.87C556.589 173.13 557.309 172.51 558.319 172.51C559.289 172.51 559.889 173.06 559.889 174.14V177.09C559.889 177.58 559.989 177.7 560.149 177.7C560.359 177.7 560.519 177.5 560.539 176.87ZM557.839 177.4C558.239 177.4 558.669 177.03 558.929 176.16V174.98C558.119 175.4 557.299 175.88 557.299 176.71C557.299 177.13 557.489 177.4 557.839 177.4ZM562.9 176.62L563.79 173.69C563.98 173.07 563.99 172.94 563.33 172.94V172.7H565.06V172.94C564.6 172.94 564.41 173.07 564.22 173.69L562.86 178.08H562.32L560.96 173.69C560.77 173.07 560.59 172.94 560.17 172.94V172.7H562.49V172.94C561.82 172.94 561.82 173.07 562 173.69L562.84 176.62H562.9ZM567.113 178.16C565.813 178.16 564.963 177.01 564.963 175.37C564.963 173.76 565.753 172.52 567.113 172.52C568.403 172.52 569.263 173.67 569.263 175.31C569.263 176.92 568.463 178.16 567.113 178.16ZM567.263 177.72C567.973 177.72 568.253 176.78 568.253 175.9C568.253 174.54 567.843 172.96 566.963 172.96C566.253 172.96 565.963 173.9 565.963 174.78C565.963 176.14 566.383 177.72 567.263 177.72ZM572.708 172.52C573.058 172.52 573.248 172.72 573.248 173.05C573.248 173.44 573.018 173.69 572.758 173.69C572.578 173.69 572.498 173.62 572.368 173.48C572.238 173.35 572.188 173.31 572.068 173.31C571.838 173.31 571.568 173.64 571.358 174.25V176.91C571.358 177.59 571.508 177.75 572.418 177.75V178H569.718V177.76C570.298 177.76 570.398 177.61 570.398 176.97V173.89C570.398 173.22 570.398 173.08 569.798 173.33L569.698 173.1L570.498 172.78L571.178 172.5L571.358 172.65V173.61H571.388C571.668 173.08 572.158 172.52 572.708 172.52ZM574.383 180.34C573.913 180.34 573.553 180.06 573.553 179.65C573.553 179.32 573.773 179.14 574.053 179.14C574.303 179.14 574.433 179.29 574.543 179.44C574.663 179.62 574.753 179.67 574.903 179.67C575.163 179.67 575.373 179.28 575.553 178.59C575.583 178.41 575.553 178.02 575.473 177.64L574.233 173.69C574.033 173.07 573.853 172.94 573.413 172.94V172.7H575.753V172.94C575.093 172.94 575.093 173.07 575.273 173.69L576.113 176.63H576.163L576.993 173.69C577.163 173.07 577.163 172.94 576.513 172.94V172.7H578.163V172.94C577.763 172.94 577.583 173.07 577.403 173.69L576.143 177.94C575.733 179.31 575.323 180.31 574.383 180.34Z" fill="black"/>
<path d="M553.68 178.16C553.07 178.16 552.51 177.88 552.11 177.49C551.95 177.33 551.83 177.34 551.79 177.57L551.7 178.03H551.45L551.47 175.04H551.73C551.8 176.49 552.56 177.74 553.66 177.74C554.52 177.74 554.89 177.07 554.89 176.45C554.89 175.53 554.18 174.94 553.36 174.32C552.36 173.56 551.52 172.93 551.52 171.75C551.52 170.56 552.38 169.84 553.51 169.84C554.09 169.84 554.49 170.02 554.84 170.35C555.01 170.5 555.15 170.46 555.18 170.24L555.23 169.94H555.47L555.59 172.57H555.34C555.24 171.34 554.64 170.25 553.58 170.25C552.84 170.25 552.44 170.79 552.44 171.41C552.44 172.19 553.02 172.67 553.95 173.37C554.99 174.14 555.81 174.83 555.81 176.06C555.81 177.32 554.91 178.16 553.68 178.16ZM560.539 176.87H560.769C560.739 177.63 560.499 178.16 559.839 178.16C559.269 178.16 558.929 177.78 558.929 176.85V176.67C558.699 177.61 558.169 178.16 557.449 178.16C556.739 178.16 556.339 177.63 556.339 176.98C556.339 175.72 557.789 175.16 558.929 174.65V174.07C558.929 173.21 558.649 172.91 558.159 172.91C557.769 172.91 557.489 173.11 557.489 173.44C557.489 173.67 557.629 173.8 557.629 174.03C557.629 174.3 557.459 174.49 557.139 174.49C556.779 174.49 556.589 174.24 556.589 173.87C556.589 173.13 557.309 172.51 558.319 172.51C559.289 172.51 559.889 173.06 559.889 174.14V177.09C559.889 177.58 559.989 177.7 560.149 177.7C560.359 177.7 560.519 177.5 560.539 176.87ZM557.839 177.4C558.239 177.4 558.669 177.03 558.929 176.16V174.98C558.119 175.4 557.299 175.88 557.299 176.71C557.299 177.13 557.489 177.4 557.839 177.4ZM562.9 176.62L563.79 173.69C563.98 173.07 563.99 172.94 563.33 172.94V172.7H565.06V172.94C564.6 172.94 564.41 173.07 564.22 173.69L562.86 178.08H562.32L560.96 173.69C560.77 173.07 560.59 172.94 560.17 172.94V172.7H562.49V172.94C561.82 172.94 561.82 173.07 562 173.69L562.84 176.62H562.9ZM567.113 178.16C565.813 178.16 564.963 177.01 564.963 175.37C564.963 173.76 565.753 172.52 567.113 172.52C568.403 172.52 569.263 173.67 569.263 175.31C569.263 176.92 568.463 178.16 567.113 178.16ZM567.263 177.72C567.973 177.72 568.253 176.78 568.253 175.9C568.253 174.54 567.843 172.96 566.963 172.96C566.253 172.96 565.963 173.9 565.963 174.78C565.963 176.14 566.383 177.72 567.263 177.72ZM572.708 172.52C573.058 172.52 573.248 172.72 573.248 173.05C573.248 173.44 573.018 173.69 572.758 173.69C572.578 173.69 572.498 173.62 572.368 173.48C572.238 173.35 572.188 173.31 572.068 173.31C571.838 173.31 571.568 173.64 571.358 174.25V176.91C571.358 177.59 571.508 177.75 572.418 177.75V178H569.718V177.76C570.298 177.76 570.398 177.61 570.398 176.97V173.89C570.398 173.22 570.398 173.08 569.798 173.33L569.698 173.1L570.498 172.78L571.178 172.5L571.358 172.65V173.61H571.388C571.668 173.08 572.158 172.52 572.708 172.52ZM574.383 180.34C573.913 180.34 573.553 180.06 573.553 179.65C573.553 179.32 573.773 179.14 574.053 179.14C574.303 179.14 574.433 179.29 574.543 179.44C574.663 179.62 574.753 179.67 574.903 179.67C575.163 179.67 575.373 179.28 575.553 178.59C575.583 178.41 575.553 178.02 575.473 177.64L574.233 173.69C574.033 173.07 573.853 172.94 573.413 172.94V172.7H575.753V172.94C575.093 172.94 575.093 173.07 575.273 173.69L576.113 176.63H576.163L576.993 173.69C577.163 173.07 577.163 172.94 576.513 172.94V172.7H578.163V172.94C577.763 172.94 577.583 173.07 577.403 173.69L576.143 177.94C575.733 179.31 575.323 180.31 574.383 180.34Z" fill="black"/>
<path d="M553.68 178.16C553.07 178.16 552.51 177.88 552.11 177.49C551.95 177.33 551.83 177.34 551.79 177.57L551.7 178.03H551.45L551.47 175.04H551.73C551.8 176.49 552.56 177.74 553.66 177.74C554.52 177.74 554.89 177.07 554.89 176.45C554.89 175.53 554.18 174.94 553.36 174.32C552.36 173.56 551.52 172.93 551.52 171.75C551.52 170.56 552.38 169.84 553.51 169.84C554.09 169.84 554.49 170.02 554.84 170.35C555.01 170.5 555.15 170.46 555.18 170.24L555.23 169.94H555.47L555.59 172.57H555.34C555.24 171.34 554.64 170.25 553.58 170.25C552.84 170.25 552.44 170.79 552.44 171.41C552.44 172.19 553.02 172.67 553.95 173.37C554.99 174.14 555.81 174.83 555.81 176.06C555.81 177.32 554.91 178.16 553.68 178.16ZM560.539 176.87H560.769C560.739 177.63 560.499 178.16 559.839 178.16C559.269 178.16 558.929 177.78 558.929 176.85V176.67C558.699 177.61 558.169 178.16 557.449 178.16C556.739 178.16 556.339 177.63 556.339 176.98C556.339 175.72 557.789 175.16 558.929 174.65V174.07C558.929 173.21 558.649 172.91 558.159 172.91C557.769 172.91 557.489 173.11 557.489 173.44C557.489 173.67 557.629 173.8 557.629 174.03C557.629 174.3 557.459 174.49 557.139 174.49C556.779 174.49 556.589 174.24 556.589 173.87C556.589 173.13 557.309 172.51 558.319 172.51C559.289 172.51 559.889 173.06 559.889 174.14V177.09C559.889 177.58 559.989 177.7 560.149 177.7C560.359 177.7 560.519 177.5 560.539 176.87ZM557.839 177.4C558.239 177.4 558.669 177.03 558.929 176.16V174.98C558.119 175.4 557.299 175.88 557.299 176.71C557.299 177.13 557.489 177.4 557.839 177.4ZM562.9 176.62L563.79 173.69C563.98 173.07 563.99 172.94 563.33 172.94V172.7H565.06V172.94C564.6 172.94 564.41 173.07 564.22 173.69L562.86 178.08H562.32L560.96 173.69C560.77 173.07 560.59 172.94 560.17 172.94V172.7H562.49V172.94C561.82 172.94 561.82 173.07 562 173.69L562.84 176.62H562.9ZM567.113 178.16C565.813 178.16 564.963 177.01 564.963 175.37C564.963 173.76 565.753 172.52 567.113 172.52C568.403 172.52 569.263 173.67 569.263 175.31C569.263 176.92 568.463 178.16 567.113 178.16ZM567.263 177.72C567.973 177.72 568.253 176.78 568.253 175.9C568.253 174.54 567.843 172.96 566.963 172.96C566.253 172.96 565.963 173.9 565.963 174.78C565.963 176.14 566.383 177.72 567.263 177.72ZM572.708 172.52C573.058 172.52 573.248 172.72 573.248 173.05C573.248 173.44 573.018 173.69 572.758 173.69C572.578 173.69 572.498 173.62 572.368 173.48C572.238 173.35 572.188 173.31 572.068 173.31C571.838 173.31 571.568 173.64 571.358 174.25V176.91C571.358 177.59 571.508 177.75 572.418 177.75V178H569.718V177.76C570.298 177.76 570.398 177.61 570.398 176.97V173.89C570.398 173.22 570.398 173.08 569.798 173.33L569.698 173.1L570.498 172.78L571.178 172.5L571.358 172.65V173.61H571.388C571.668 173.08 572.158 172.52 572.708 172.52ZM574.383 180.34C573.913 180.34 573.553 180.06 573.553 179.65C573.553 179.32 573.773 179.14 574.053 179.14C574.303 179.14 574.433 179.29 574.543 179.44C574.663 179.62 574.753 179.67 574.903 179.67C575.163 179.67 575.373 179.28 575.553 178.59C575.583 178.41 575.553 178.02 575.473 177.64L574.233 173.69C574.033 173.07 573.853 172.94 573.413 172.94V172.7H575.753V172.94C575.093 172.94 575.093 173.07 575.273 173.69L576.113 176.63H576.163L576.993 173.69C577.163 173.07 577.163 172.94 576.513 172.94V172.7H578.163V172.94C577.763 172.94 577.583 173.07 577.403 173.69L576.143 177.94C575.733 179.31 575.323 180.31 574.383 180.34Z" fill="black"/>
<path d="M713.78 175.25L714.63 176.91C714.94 177.52 715.1 177.76 715.83 177.76V178H715.34C714.01 178 713.84 177.87 713.37 176.86L712.06 174.21H711.91C711.72 174.21 711.54 174.2 711.37 174.19V176.97C711.37 177.58 711.51 177.76 712.44 177.76V178H709.19V177.76C710.12 177.76 710.25 177.58 710.25 176.97V171.03C710.25 170.42 710.12 170.24 709.19 170.24V170H712.27C714.06 170 714.86 170.77 714.86 172.04C714.86 173.38 713.93 173.97 712.76 174.15C713.16 174.27 713.43 174.49 713.78 175.25ZM711.37 170.78V173.8C711.55 173.82 711.74 173.83 711.94 173.83C712.96 173.83 713.71 173.33 713.71 172.07C713.71 170.98 713.15 170.41 712.18 170.41C711.97 170.41 711.76 170.44 711.55 170.51C711.42 170.56 711.37 170.66 711.37 170.78ZM717.099 171.54C716.719 171.54 716.449 171.28 716.449 170.93C716.449 170.57 716.719 170.31 717.099 170.31C717.469 170.31 717.739 170.57 717.739 170.93C717.739 171.28 717.469 171.54 717.099 171.54ZM717.659 172.65V176.97C717.659 177.61 717.759 177.76 718.369 177.76V178H715.989V177.76C716.599 177.76 716.699 177.61 716.699 176.97V173.89C716.699 173.22 716.689 173.08 716.109 173.32L716.019 173.09L717.489 172.5L717.659 172.65ZM720.652 178.16C719.482 178.16 718.802 177.04 718.802 175.44C718.802 173.78 719.532 172.52 720.822 172.52C721.662 172.52 722.232 173.07 722.232 173.82C722.232 174.24 722.042 174.49 721.702 174.49C721.392 174.49 721.232 174.28 721.232 174.03C721.232 173.86 721.302 173.66 721.302 173.45C721.302 173.11 721.112 172.94 720.812 172.94C720.092 172.94 719.792 173.93 719.792 175.06C719.792 176.36 720.192 177.4 721.012 177.4C721.462 177.4 721.972 177.06 722.152 175.8H722.392C722.282 177.46 721.552 178.16 720.652 178.16ZM724.278 173.99V176.97C724.278 177.61 724.368 177.76 724.898 177.76V178H722.638V177.76C723.218 177.76 723.318 177.61 723.318 176.97L723.308 171.22C723.308 170.58 723.328 170.45 722.728 170.76L722.628 170.55L723.408 170.14L724.148 169.76L724.278 169.9V173.57H724.308C724.758 172.95 725.218 172.52 725.898 172.52C726.608 172.52 726.988 173.03 726.988 173.97V176.97C726.988 177.61 727.078 177.76 727.658 177.76V178H725.418V177.76C725.938 177.76 726.028 177.61 726.028 176.97V174.02C726.028 173.47 725.808 173.22 725.438 173.22C725.018 173.22 724.658 173.5 724.278 173.99Z" fill="black"/>
<path d="M95.35 330.07C95.35 327.66 96.65 325.84 98.59 325.84C99.23 325.84 99.77 326.02 100.23 326.46C100.38 326.6 100.5 326.56 100.52 326.37L100.57 325.93H100.8L100.95 328.76H100.72C100.44 327.18 99.83 326.28 98.77 326.28C97.37 326.28 96.57 327.85 96.57 329.94C96.57 332.04 97.39 333.57 98.77 333.57C99.99 333.57 100.72 332.36 100.93 330.75H101.22C101.03 332.84 100.14 334.16 98.44 334.16C96.46 334.16 95.35 332.35 95.35 330.07ZM104.784 328.52C105.134 328.52 105.324 328.72 105.324 329.05C105.324 329.44 105.094 329.69 104.834 329.69C104.654 329.69 104.574 329.62 104.444 329.48C104.314 329.35 104.264 329.31 104.144 329.31C103.914 329.31 103.644 329.64 103.434 330.25V332.91C103.434 333.59 103.584 333.75 104.494 333.75V334H101.794V333.76C102.374 333.76 102.474 333.61 102.474 332.97V329.89C102.474 329.22 102.474 329.08 101.874 329.33L101.774 329.1L102.574 328.78L103.254 328.5L103.434 328.65V329.61H103.464C103.744 329.08 104.234 328.52 104.784 328.52ZM106.761 327.54C106.381 327.54 106.111 327.28 106.111 326.93C106.111 326.57 106.381 326.31 106.761 326.31C107.131 326.31 107.401 326.57 107.401 326.93C107.401 327.28 107.131 327.54 106.761 327.54ZM107.321 328.65V332.97C107.321 333.61 107.421 333.76 108.031 333.76V334H105.651V333.76C106.261 333.76 106.361 333.61 106.361 332.97V329.89C106.361 329.22 106.351 329.08 105.771 329.32L105.681 329.09L107.151 328.5L107.321 328.65ZM110.224 334.16C109.714 334.16 109.344 333.95 109.134 333.8C109.004 333.7 108.924 333.73 108.864 333.85L108.784 334.05H108.564L108.494 331.89H108.714C108.864 333.08 109.434 333.74 110.124 333.74C110.594 333.74 110.844 333.42 110.844 332.91C110.844 332.46 110.634 332.27 109.704 331.52C108.854 330.85 108.564 330.46 108.564 329.89C108.564 329.06 109.164 328.52 109.954 328.52C110.404 328.52 110.714 328.71 110.894 328.86C111.024 328.98 111.124 328.93 111.154 328.81L111.214 328.59H111.444L111.484 330.34H111.264C111.144 329.56 110.704 328.94 110.034 328.94C109.634 328.94 109.374 329.21 109.374 329.61C109.374 330.03 109.634 330.25 110.334 330.8C111.234 331.51 111.664 331.94 111.664 332.7C111.664 333.69 110.994 334.16 110.224 334.16ZM115.085 328.52C116.095 328.52 116.575 329.61 116.575 331.15C116.575 332.79 115.945 334.12 114.855 334.12C114.385 334.12 113.925 333.88 113.655 333.4H113.635V335.17C113.635 335.82 113.735 335.96 114.345 335.96V336.2H111.965V335.96C112.575 335.96 112.665 335.82 112.665 335.17V329.89C112.665 329.22 112.665 329.08 112.065 329.32L111.975 329.09L113.475 328.5L113.635 328.65V329.53H113.675C114.065 328.89 114.525 328.52 115.085 328.52ZM114.605 333.64C115.285 333.64 115.525 332.52 115.525 331.3C115.525 329.96 115.255 329.21 114.675 329.21C114.265 329.21 113.895 329.57 113.635 330.01V331.83C113.635 332.95 114.075 333.64 114.605 333.64Z" fill="black"/>
<path d="M247.68 334.16C247.07 334.16 246.51 333.88 246.11 333.49C245.95 333.33 245.83 333.34 245.79 333.57L245.7 334.03H245.45L245.47 331.04H245.73C245.8 332.49 246.56 333.74 247.66 333.74C248.52 333.74 248.89 333.07 248.89 332.45C248.89 331.53 248.18 330.94 247.36 330.32C246.36 329.56 245.52 328.93 245.52 327.75C245.52 326.56 246.38 325.84 247.51 325.84C248.09 325.84 248.49 326.02 248.84 326.35C249.01 326.5 249.15 326.46 249.18 326.24L249.23 325.94H249.47L249.59 328.57H249.34C249.24 327.34 248.64 326.25 247.58 326.25C246.84 326.25 246.44 326.79 246.44 327.41C246.44 328.19 247.02 328.67 247.95 329.37C248.99 330.14 249.81 330.83 249.81 332.06C249.81 333.32 248.91 334.16 247.68 334.16ZM257.06 329.96V332.97C257.06 333.61 257.15 333.76 257.73 333.76V334H255.52V333.76C256.02 333.76 256.1 333.61 256.1 332.97V330.01C256.1 329.47 255.9 329.22 255.54 329.22C255.18 329.22 254.86 329.47 254.51 329.94V329.96V332.97C254.51 333.61 254.59 333.76 255.09 333.76V334H252.96V333.76C253.47 333.76 253.55 333.61 253.55 332.97V330.01C253.55 329.47 253.35 329.22 252.99 329.22C252.62 329.22 252.29 329.48 251.93 329.98V332.97C251.93 333.61 252.01 333.76 252.52 333.76V334H250.29V333.76C250.88 333.76 250.97 333.61 250.97 332.97V329.89C250.97 329.22 250.97 329.09 250.38 329.33L250.28 329.11L251.74 328.5L251.93 328.65V329.57H251.96C252.34 329 252.77 328.52 253.45 328.52C254.04 328.52 254.39 328.89 254.49 329.57H254.52C254.89 329 255.32 328.52 256 328.52C256.7 328.52 257.06 329.04 257.06 329.96ZM260.243 334.16C258.943 334.16 258.093 333.01 258.093 331.37C258.093 329.76 258.883 328.52 260.243 328.52C261.533 328.52 262.393 329.67 262.393 331.31C262.393 332.92 261.593 334.16 260.243 334.16ZM260.393 333.72C261.103 333.72 261.383 332.78 261.383 331.9C261.383 330.54 260.973 328.96 260.093 328.96C259.383 328.96 259.093 329.9 259.093 330.78C259.093 332.14 259.513 333.72 260.393 333.72ZM265.214 334.16C263.914 334.16 263.064 333.01 263.064 331.37C263.064 329.76 263.854 328.52 265.214 328.52C266.504 328.52 267.364 329.67 267.364 331.31C267.364 332.92 266.564 334.16 265.214 334.16ZM265.364 333.72C266.074 333.72 266.354 332.78 266.354 331.9C266.354 330.54 265.944 328.96 265.064 328.96C264.354 328.96 264.064 329.9 264.064 330.78C264.064 332.14 264.484 333.72 265.364 333.72ZM270.559 331.76H270.839C270.839 333.32 270.529 334.16 269.549 334.16C268.769 334.16 268.359 333.69 268.359 332.29V329.11H267.659V328.74C268.389 328.72 268.849 328.18 268.949 327.24H269.309V328.7H270.509V329.11H269.329V332.03C269.329 332.92 269.419 333.51 269.889 333.51C270.339 333.51 270.559 332.95 270.559 331.76ZM272.758 329.99V332.97C272.758 333.61 272.848 333.76 273.378 333.76V334H271.118V333.76C271.698 333.76 271.798 333.61 271.798 332.97L271.788 327.22C271.788 326.58 271.808 326.45 271.208 326.76L271.108 326.55L271.888 326.14L272.628 325.76L272.758 325.9V329.57H272.788C273.238 328.95 273.698 328.52 274.378 328.52C275.088 328.52 275.468 329.03 275.468 329.97V332.97C275.468 333.61 275.558 333.76 276.138 333.76V334H273.898V333.76C274.418 333.76 274.508 333.61 274.508 332.97V330.02C274.508 329.47 274.288 329.22 273.918 329.22C273.498 329.22 273.138 329.5 272.758 329.99Z" fill="black"/>
<path d="M404.17 334H401.19V333.76C402.12 333.76 402.25 333.58 402.25 332.97V327.03C402.25 326.42 402.12 326.24 401.19 326.24V326H404.07C406.17 326 408.06 327.25 408.06 330.04C408.06 332.72 406.31 334 404.17 334ZM404.05 333.59C405.96 333.59 406.88 332.08 406.88 330.11C406.88 327.82 405.63 326.41 404.06 326.41C403.84 326.41 403.65 326.44 403.57 326.47C403.44 326.5 403.38 326.59 403.38 326.73V333.16C403.38 333.49 403.61 333.59 404.05 333.59ZM411.633 328.52C411.983 328.52 412.173 328.72 412.173 329.05C412.173 329.44 411.943 329.69 411.683 329.69C411.503 329.69 411.423 329.62 411.293 329.48C411.163 329.35 411.113 329.31 410.993 329.31C410.763 329.31 410.493 329.64 410.283 330.25V332.91C410.283 333.59 410.433 333.75 411.343 333.75V334H408.643V333.76C409.223 333.76 409.323 333.61 409.323 332.97V329.89C409.323 329.22 409.323 329.08 408.723 329.33L408.623 329.1L409.423 328.78L410.103 328.5L410.283 328.65V329.61H410.313C410.593 329.08 411.083 328.52 411.633 328.52ZM413.309 336.34C412.839 336.34 412.479 336.06 412.479 335.65C412.479 335.32 412.699 335.14 412.979 335.14C413.229 335.14 413.359 335.29 413.469 335.44C413.589 335.62 413.679 335.67 413.829 335.67C414.089 335.67 414.299 335.28 414.479 334.59C414.509 334.41 414.479 334.02 414.399 333.64L413.159 329.69C412.959 329.07 412.779 328.94 412.339 328.94V328.7H414.679V328.94C414.019 328.94 414.019 329.07 414.199 329.69L415.039 332.63H415.089L415.919 329.69C416.089 329.07 416.089 328.94 415.439 328.94V328.7H417.089V328.94C416.689 328.94 416.509 329.07 416.329 329.69L415.069 333.94C414.659 335.31 414.249 336.31 413.309 336.34Z" fill="black"/>
<path d="M556.75 326L556.78 326.3L556.92 328.03L556.65 328.05C556.53 326.67 556.3 326.45 555.59 326.45H553.85C553.54 326.45 553.38 326.62 553.38 326.92V329.86H554.74C555.35 329.86 555.53 329.71 555.53 328.68H555.77V331.43H555.53C555.53 330.4 555.35 330.26 554.74 330.26H553.38V332.97C553.38 333.58 553.52 333.76 554.53 333.76V334H551.19V333.76C552.12 333.76 552.25 333.58 552.25 332.97V327.03C552.25 326.42 552.12 326.24 551.19 326.24V326H556.75ZM559.797 328.52C560.147 328.52 560.337 328.72 560.337 329.05C560.337 329.44 560.107 329.69 559.847 329.69C559.667 329.69 559.587 329.62 559.457 329.48C559.327 329.35 559.277 329.31 559.157 329.31C558.927 329.31 558.657 329.64 558.447 330.25V332.91C558.447 333.59 558.597 333.75 559.507 333.75V334H556.807V333.76C557.387 333.76 557.487 333.61 557.487 332.97V329.89C557.487 329.22 557.487 329.08 556.887 329.33L556.787 329.1L557.587 328.78L558.267 328.5L558.447 328.65V329.61H558.477C558.757 329.08 559.247 328.52 559.797 328.52ZM564.027 331.86H564.267C564.057 333.47 563.377 334.16 562.437 334.16C561.307 334.16 560.597 333.09 560.597 331.44C560.597 329.86 561.297 328.52 562.487 328.52C563.657 328.52 564.207 329.62 564.207 331.08H561.567V331.1C561.567 332.46 561.987 333.42 562.817 333.42C563.267 333.42 563.787 333.07 564.027 331.86ZM562.487 328.94C561.887 328.94 561.637 329.67 561.577 330.67H563.247C563.247 329.71 563.077 328.94 562.487 328.94ZM566.634 334.16C566.124 334.16 565.754 333.95 565.544 333.8C565.414 333.7 565.334 333.73 565.274 333.85L565.194 334.05H564.974L564.904 331.89H565.124C565.274 333.08 565.844 333.74 566.534 333.74C567.004 333.74 567.254 333.42 567.254 332.91C567.254 332.46 567.044 332.27 566.114 331.52C565.264 330.85 564.974 330.46 564.974 329.89C564.974 329.06 565.574 328.52 566.364 328.52C566.814 328.52 567.124 328.71 567.304 328.86C567.434 328.98 567.534 328.93 567.564 328.81L567.624 328.59H567.854L567.894 330.34H567.674C567.554 329.56 567.114 328.94 566.444 328.94C566.044 328.94 565.784 329.21 565.784 329.61C565.784 330.03 566.044 330.25 566.744 330.8C567.644 331.51 568.074 331.94 568.074 332.7C568.074 333.69 567.404 334.16 566.634 334.16ZM570.155 329.99V332.97C570.155 333.61 570.245 333.76 570.775 333.76V334H568.515V333.76C569.095 333.76 569.195 333.61 569.195 332.97L569.185 327.22C569.185 326.58 569.205 326.45 568.605 326.76L568.505 326.55L569.285 326.14L570.025 325.76L570.155 325.9V329.57H570.185C570.635 328.95 571.095 328.52 571.775 328.52C572.485 328.52 572.865 329.03 572.865 329.97V332.97C572.865 333.61 572.955 333.76 573.535 333.76V334H571.295V333.76C571.815 333.76 571.905 333.61 571.905 332.97V330.02C571.905 329.47 571.685 329.22 571.315 329.22C570.895 329.22 570.535 329.5 570.155 329.99Z" fill="black"/>
<path d="M712.22 334H709.19V333.76C710.12 333.76 710.25 333.58 710.25 332.97V327.03C710.25 326.42 710.12 326.24 709.19 326.24V326H712.32C713.78 326 714.75 326.64 714.75 327.98C714.75 329.09 714.02 329.74 713.05 329.86V329.91C714.3 329.99 715.12 330.77 715.12 331.85C715.12 333.43 713.82 334 712.22 334ZM711.36 326.72V329.66C711.61 329.7 711.87 329.7 712.11 329.7C712.93 329.7 713.65 329.18 713.65 328.02C713.65 326.88 712.92 326.41 712.13 326.41C711.94 326.41 711.73 326.42 711.56 326.46C711.42 326.49 711.36 326.58 711.36 326.72ZM711.36 330.15V333.28C711.36 333.52 711.62 333.59 712.09 333.59C713.03 333.59 714 333.24 714 331.86C714 330.48 712.89 330.11 712.12 330.11C711.86 330.11 711.61 330.11 711.36 330.15ZM718.51 328.52C718.86 328.52 719.05 328.72 719.05 329.05C719.05 329.44 718.82 329.69 718.56 329.69C718.38 329.69 718.3 329.62 718.17 329.48C718.04 329.35 717.99 329.31 717.87 329.31C717.64 329.31 717.37 329.64 717.16 330.25V332.91C717.16 333.59 717.31 333.75 718.22 333.75V334H715.52V333.76C716.1 333.76 716.2 333.61 716.2 332.97V329.89C716.2 329.22 716.2 329.08 715.6 329.33L715.5 329.1L716.3 328.78L716.98 328.5L717.16 328.65V329.61H717.19C717.47 329.08 717.96 328.52 718.51 328.52ZM720.487 327.54C720.107 327.54 719.837 327.28 719.837 326.93C719.837 326.57 720.107 326.31 720.487 326.31C720.857 326.31 721.127 326.57 721.127 326.93C721.127 327.28 720.857 327.54 720.487 327.54ZM721.047 328.65V332.97C721.047 333.61 721.147 333.76 721.757 333.76V334H719.377V333.76C719.987 333.76 720.087 333.61 720.087 332.97V329.89C720.087 329.22 720.077 329.08 719.497 329.32L719.407 329.09L720.877 328.5L721.047 328.65ZM724.17 333.2H725.33C726.37 333.2 726.84 333.5 726.84 334.26C726.84 335.37 725.64 336.36 723.96 336.36C722.89 336.36 721.96 335.97 721.96 335.15C721.96 334.58 722.38 334.2 723.01 333.92C722.6 333.76 722.42 333.48 722.42 333.14C722.42 332.68 722.74 332.35 723.19 332.07C722.7 331.74 722.42 331.17 722.42 330.48C722.42 329.36 723.14 328.53 724.29 328.53C724.67 328.53 725 328.62 725.28 328.79C725.68 328.56 726.11 328.46 726.42 328.46C726.71 328.46 726.79 328.6 726.79 328.76C726.79 328.95 726.67 329.1 726.43 329.1C726.05 329.1 725.78 328.9 725.49 328.94C725.89 329.28 726.12 329.8 726.12 330.45C726.12 331.59 725.4 332.38 724.28 332.38C723.97 332.38 723.69 332.32 723.45 332.21C723.25 332.37 723.12 332.53 723.12 332.73C723.12 332.99 723.2 333.2 724.17 333.2ZM724.16 328.91C723.61 328.91 723.4 329.5 723.4 330.13C723.4 330.97 723.67 331.99 724.4 331.99C724.92 331.99 725.15 331.49 725.15 330.82C725.15 329.95 724.85 328.91 724.16 328.91ZM724.2 335.76C725.47 335.76 726.28 335.13 726.28 334.57C726.28 334.18 726.01 334.09 725.3 334.09H724.06C723.78 334.09 723.54 334.07 723.34 334.02C723 334.29 722.76 334.59 722.76 334.91C722.76 335.33 723.15 335.76 724.2 335.76ZM728.653 329.99V332.97C728.653 333.61 728.743 333.76 729.273 333.76V334H727.013V333.76C727.593 333.76 727.693 333.61 727.693 332.97L727.683 327.22C727.683 326.58 727.703 326.45 727.103 326.76L727.003 326.55L727.783 326.14L728.523 325.76L728.653 325.9V329.57H728.683C729.133 328.95 729.593 328.52 730.273 328.52C730.983 328.52 731.363 329.03 731.363 329.97V332.97C731.363 333.61 731.453 333.76 732.033 333.76V334H729.793V333.76C730.313 333.76 730.403 333.61 730.403 332.97V330.02C730.403 329.47 730.183 329.22 729.813 329.22C729.393 329.22 729.033 329.5 728.653 329.99ZM735.067 331.76H735.347C735.347 333.32 735.037 334.16 734.057 334.16C733.277 334.16 732.867 333.69 732.867 332.29V329.11H732.167V328.74C732.897 328.72 733.357 328.18 733.457 327.24H733.817V328.7H735.017V329.11H733.837V332.03C733.837 332.92 733.927 333.51 734.397 333.51C734.847 333.51 735.067 332.95 735.067 331.76Z" fill="black"/>
<path d="M100.92 502L98.28 510.18L97.49 509.98L99.86 502.92V502.89H97.5C96.89 502.89 96.67 503.07 96.48 503.98L96.25 503.93L96.49 502.79L96.65 502H100.92ZM101.436 510.16C101.106 510.16 100.846 509.9 100.846 509.57C100.846 509.25 101.106 508.98 101.436 508.98C101.756 508.98 102.026 509.25 102.026 509.57C102.026 509.9 101.756 510.16 101.436 510.16ZM104.353 510.16C103.523 510.16 102.733 509.83 102.733 509.35C102.733 509.1 102.923 508.93 103.173 508.93C103.443 508.93 103.583 509.13 103.733 509.32C103.903 509.54 104.113 509.72 104.453 509.72C105.113 509.72 105.833 508.94 105.833 507.27C105.833 505.81 105.313 505.21 104.563 505.21C104.163 505.21 103.813 505.39 103.533 505.71L103.203 505.47L103.973 502H106.843L106.633 502.89H104.283L103.843 505.02L103.883 505.05C104.243 504.75 104.623 504.62 105.033 504.62C106.143 504.62 106.983 505.59 106.983 507.07C106.983 509.12 105.713 510.16 104.353 510.16ZM110.325 510.15C108.725 510.15 107.905 508.28 107.905 505.97C107.905 503.69 108.725 501.84 110.325 501.84C111.915 501.84 112.735 503.69 112.735 505.97C112.735 508.28 111.915 510.15 110.325 510.15ZM110.325 509.74C111.245 509.74 111.595 508.17 111.595 505.97C111.595 503.8 111.245 502.25 110.325 502.25C109.395 502.25 109.055 503.8 109.055 505.97C109.055 508.17 109.395 509.74 110.325 509.74ZM115.097 505.9C114.317 505.9 113.707 505 113.707 503.86C113.707 502.7 114.317 501.8 115.097 501.8C115.857 501.8 116.467 502.7 116.467 503.86C116.467 505 115.857 505.9 115.097 505.9ZM114.377 510L119.347 502H119.777L114.807 510H114.377ZM115.097 505.64C115.587 505.64 115.747 504.81 115.747 503.86C115.747 502.89 115.587 502.07 115.097 502.07C114.587 502.07 114.427 502.89 114.427 503.86C114.427 504.81 114.587 505.64 115.097 505.64ZM119.107 510.16C118.327 510.16 117.717 509.26 117.717 508.11C117.717 506.95 118.327 506.05 119.107 506.05C119.867 506.05 120.477 506.95 120.477 508.11C120.477 509.26 119.867 510.16 119.107 510.16ZM119.107 509.89C119.597 509.89 119.757 509.07 119.757 508.11C119.757 507.14 119.597 506.32 119.107 506.32C118.597 506.32 118.437 507.14 118.437 508.11C118.437 509.07 118.597 509.89 119.107 509.89Z" fill="black"/>
<path d="M248.34 501.96V508.97C248.34 509.61 248.46 509.76 249.22 509.76V510H246.37V509.76C247.19 509.76 247.33 509.61 247.33 508.97V503.42C247.33 502.71 247.3 502.6 246.36 503.1L246.23 502.86L247.48 502.21L248.2 501.82L248.34 501.96ZM251.836 501.96V508.97C251.836 509.61 251.956 509.76 252.716 509.76V510H249.866V509.76C250.686 509.76 250.826 509.61 250.826 508.97V503.42C250.826 502.71 250.796 502.6 249.856 503.1L249.726 502.86L250.976 502.21L251.696 501.82L251.836 501.96ZM254.082 510.16C253.752 510.16 253.492 509.9 253.492 509.57C253.492 509.25 253.752 508.98 254.082 508.98C254.402 508.98 254.672 509.25 254.672 509.57C254.672 509.9 254.402 510.16 254.082 510.16ZM257 510.16C256.17 510.16 255.38 509.83 255.38 509.35C255.38 509.1 255.57 508.93 255.82 508.93C256.09 508.93 256.23 509.13 256.38 509.32C256.55 509.54 256.76 509.72 257.1 509.72C257.76 509.72 258.48 508.94 258.48 507.27C258.48 505.81 257.96 505.21 257.21 505.21C256.81 505.21 256.46 505.39 256.18 505.71L255.85 505.47L256.62 502H259.49L259.28 502.89H256.93L256.49 505.02L256.53 505.05C256.89 504.75 257.27 504.62 257.68 504.62C258.79 504.62 259.63 505.59 259.63 507.07C259.63 509.12 258.36 510.16 257 510.16ZM262.972 510.15C261.372 510.15 260.552 508.28 260.552 505.97C260.552 503.69 261.372 501.84 262.972 501.84C264.562 501.84 265.382 503.69 265.382 505.97C265.382 508.28 264.562 510.15 262.972 510.15ZM262.972 509.74C263.892 509.74 264.242 508.17 264.242 505.97C264.242 503.8 263.892 502.25 262.972 502.25C262.042 502.25 261.702 503.8 261.702 505.97C261.702 508.17 262.042 509.74 262.972 509.74ZM267.744 505.9C266.964 505.9 266.354 505 266.354 503.86C266.354 502.7 266.964 501.8 267.744 501.8C268.504 501.8 269.114 502.7 269.114 503.86C269.114 505 268.504 505.9 267.744 505.9ZM267.024 510L271.994 502H272.424L267.454 510H267.024ZM267.744 505.64C268.234 505.64 268.394 504.81 268.394 503.86C268.394 502.89 268.234 502.07 267.744 502.07C267.234 502.07 267.074 502.89 267.074 503.86C267.074 504.81 267.234 505.64 267.744 505.64ZM271.754 510.16C270.974 510.16 270.364 509.26 270.364 508.11C270.364 506.95 270.974 506.05 271.754 506.05C272.514 506.05 273.124 506.95 273.124 508.11C273.124 509.26 272.514 510.16 271.754 510.16ZM271.754 509.89C272.244 509.89 272.404 509.07 272.404 508.11C272.404 507.14 272.244 506.32 271.754 506.32C271.244 506.32 271.084 507.14 271.084 508.11C271.084 509.07 271.244 509.89 271.754 509.89Z" fill="black"/>
<path d="M404.34 501.96V508.97C404.34 509.61 404.46 509.76 405.22 509.76V510H402.37V509.76C403.19 509.76 403.33 509.61 403.33 508.97V503.42C403.33 502.71 403.3 502.6 402.36 503.1L402.23 502.86L403.48 502.21L404.2 501.82L404.34 501.96ZM406.756 509.11H409.196C409.846 509.11 410.046 508.9 410.326 508.08L410.556 508.16L410.186 509.25L409.926 510H405.656V509.76C407.526 507.73 409.036 505.98 409.036 504.16C409.036 503.32 408.676 502.71 407.846 502.71C406.886 502.71 406.356 503.57 406.306 504.91H406.056C406.056 503.06 406.946 501.84 408.356 501.84C409.546 501.84 410.116 502.64 410.116 503.66C410.116 505.57 408.256 507.59 406.756 509.08V509.11ZM411.694 510.16C411.364 510.16 411.104 509.9 411.104 509.57C411.104 509.25 411.364 508.98 411.694 508.98C412.014 508.98 412.284 509.25 412.284 509.57C412.284 509.9 412.014 510.16 411.694 510.16ZM414.611 510.16C413.781 510.16 412.991 509.83 412.991 509.35C412.991 509.1 413.181 508.93 413.431 508.93C413.701 508.93 413.841 509.13 413.991 509.32C414.161 509.54 414.371 509.72 414.711 509.72C415.371 509.72 416.091 508.94 416.091 507.27C416.091 505.81 415.571 505.21 414.821 505.21C414.421 505.21 414.071 505.39 413.791 505.71L413.461 505.47L414.231 502H417.101L416.891 502.89H414.541L414.101 505.02L414.141 505.05C414.501 504.75 414.881 504.62 415.291 504.62C416.401 504.62 417.241 505.59 417.241 507.07C417.241 509.12 415.971 510.16 414.611 510.16ZM420.583 510.15C418.983 510.15 418.163 508.28 418.163 505.97C418.163 503.69 418.983 501.84 420.583 501.84C422.173 501.84 422.993 503.69 422.993 505.97C422.993 508.28 422.173 510.15 420.583 510.15ZM420.583 509.74C421.503 509.74 421.853 508.17 421.853 505.97C421.853 503.8 421.503 502.25 420.583 502.25C419.653 502.25 419.313 503.8 419.313 505.97C419.313 508.17 419.653 509.74 420.583 509.74ZM425.355 505.9C424.575 505.9 423.965 505 423.965 503.86C423.965 502.7 424.575 501.8 425.355 501.8C426.115 501.8 426.725 502.7 426.725 503.86C426.725 505 426.115 505.9 425.355 505.9ZM424.635 510L429.605 502H430.035L425.065 510H424.635ZM425.355 505.64C425.845 505.64 426.005 504.81 426.005 503.86C426.005 502.89 425.845 502.07 425.355 502.07C424.845 502.07 424.685 502.89 424.685 503.86C424.685 504.81 424.845 505.64 425.355 505.64ZM429.365 510.16C428.585 510.16 427.975 509.26 427.975 508.11C427.975 506.95 428.585 506.05 429.365 506.05C430.125 506.05 430.735 506.95 430.735 508.11C430.735 509.26 430.125 510.16 429.365 510.16ZM429.365 509.89C429.855 509.89 430.015 509.07 430.015 508.11C430.015 507.14 429.855 506.32 429.365 506.32C428.855 506.32 428.695 507.14 428.695 508.11C428.695 509.07 428.855 509.89 429.365 509.89Z" fill="black"/>
<path d="M554.34 501.96V508.97C554.34 509.61 554.46 509.76 555.22 509.76V510H552.37V509.76C553.19 509.76 553.33 509.61 553.33 508.97V503.42C553.33 502.71 553.3 502.6 552.36 503.1L552.23 502.86L553.48 502.21L554.2 501.82L554.34 501.96ZM555.656 509.37C555.656 509.13 555.846 508.96 556.096 508.96C556.366 508.96 556.506 509.16 556.656 509.35C556.836 509.58 556.986 509.72 557.376 509.72C558.006 509.72 558.716 509.21 558.716 507.87C558.716 506.38 557.796 505.9 556.866 505.9V505.67C557.826 505.39 558.516 504.82 558.516 503.78C558.516 503.13 558.186 502.56 557.416 502.56C556.616 502.56 556.236 503.08 556.076 503.73H555.836C556.006 502.52 556.746 501.84 557.826 501.84C558.806 501.84 559.566 502.49 559.566 503.59C559.566 504.51 558.946 505.23 557.896 505.64V505.67C558.946 505.78 559.836 506.43 559.836 507.74C559.836 509.24 558.656 510.16 557.246 510.16C556.456 510.16 555.656 509.87 555.656 509.37ZM560.922 510.16C560.592 510.16 560.332 509.9 560.332 509.57C560.332 509.25 560.592 508.98 560.922 508.98C561.242 508.98 561.512 509.25 561.512 509.57C561.512 509.9 561.242 510.16 560.922 510.16ZM564.489 510.15C562.889 510.15 562.069 508.28 562.069 505.97C562.069 503.69 562.889 501.84 564.489 501.84C566.079 501.84 566.899 503.69 566.899 505.97C566.899 508.28 566.079 510.15 564.489 510.15ZM564.489 509.74C565.409 509.74 565.759 508.17 565.759 505.97C565.759 503.8 565.409 502.25 564.489 502.25C563.559 502.25 563.219 503.8 563.219 505.97C563.219 508.17 563.559 509.74 564.489 509.74ZM570.251 510.15C568.651 510.15 567.831 508.28 567.831 505.97C567.831 503.69 568.651 501.84 570.251 501.84C571.841 501.84 572.661 503.69 572.661 505.97C572.661 508.28 571.841 510.15 570.251 510.15ZM570.251 509.74C571.171 509.74 571.521 508.17 571.521 505.97C571.521 503.8 571.171 502.25 570.251 502.25C569.321 502.25 568.981 503.8 568.981 505.97C568.981 508.17 569.321 509.74 570.251 509.74ZM575.023 505.9C574.243 505.9 573.633 505 573.633 503.86C573.633 502.7 574.243 501.8 575.023 501.8C575.783 501.8 576.393 502.7 576.393 503.86C576.393 505 575.783 505.9 575.023 505.9ZM574.303 510L579.273 502H579.703L574.733 510H574.303ZM575.023 505.64C575.513 505.64 575.673 504.81 575.673 503.86C575.673 502.89 575.513 502.07 575.023 502.07C574.513 502.07 574.353 502.89 574.353 503.86C574.353 504.81 574.513 505.64 575.023 505.64ZM579.033 510.16C578.253 510.16 577.643 509.26 577.643 508.11C577.643 506.95 578.253 506.05 579.033 506.05C579.793 506.05 580.403 506.95 580.403 508.11C580.403 509.26 579.793 510.16 579.033 510.16ZM579.033 509.89C579.523 509.89 579.683 509.07 579.683 508.11C579.683 507.14 579.523 506.32 579.033 506.32C578.523 506.32 578.363 507.14 578.363 508.11C578.363 509.07 578.523 509.89 579.033 509.89Z" fill="black"/>
<path d="M712.34 501.96V508.97C712.34 509.61 712.46 509.76 713.22 509.76V510H710.37V509.76C711.19 509.76 711.33 509.61 711.33 508.97V503.42C711.33 502.71 711.3 502.6 710.36 503.1L710.23 502.86L711.48 502.21L712.2 501.82L712.34 501.96ZM713.656 509.37C713.656 509.13 713.846 508.96 714.096 508.96C714.366 508.96 714.506 509.16 714.656 509.35C714.836 509.58 714.986 509.72 715.376 509.72C716.006 509.72 716.716 509.21 716.716 507.87C716.716 506.38 715.796 505.9 714.866 505.9V505.67C715.826 505.39 716.516 504.82 716.516 503.78C716.516 503.13 716.186 502.56 715.416 502.56C714.616 502.56 714.236 503.08 714.076 503.73H713.836C714.006 502.52 714.746 501.84 715.826 501.84C716.806 501.84 717.566 502.49 717.566 503.59C717.566 504.51 716.946 505.23 715.896 505.64V505.67C716.946 505.78 717.836 506.43 717.836 507.74C717.836 509.24 716.656 510.16 715.246 510.16C714.456 510.16 713.656 509.87 713.656 509.37ZM718.922 510.16C718.592 510.16 718.332 509.9 718.332 509.57C718.332 509.25 718.592 508.98 718.922 508.98C719.242 508.98 719.512 509.25 719.512 509.57C719.512 509.9 719.242 510.16 718.922 510.16ZM721.84 510.16C721.01 510.16 720.22 509.83 720.22 509.35C720.22 509.1 720.41 508.93 720.66 508.93C720.93 508.93 721.07 509.13 721.22 509.32C721.39 509.54 721.6 509.72 721.94 509.72C722.6 509.72 723.32 508.94 723.32 507.27C723.32 505.81 722.8 505.21 722.05 505.21C721.65 505.21 721.3 505.39 721.02 505.71L720.69 505.47L721.46 502H724.33L724.12 502.89H721.77L721.33 505.02L721.37 505.05C721.73 504.75 722.11 504.62 722.52 504.62C723.63 504.62 724.47 505.59 724.47 507.07C724.47 509.12 723.2 510.16 721.84 510.16ZM727.812 510.15C726.212 510.15 725.392 508.28 725.392 505.97C725.392 503.69 726.212 501.84 727.812 501.84C729.402 501.84 730.222 503.69 730.222 505.97C730.222 508.28 729.402 510.15 727.812 510.15ZM727.812 509.74C728.732 509.74 729.082 508.17 729.082 505.97C729.082 503.8 728.732 502.25 727.812 502.25C726.882 502.25 726.542 503.8 726.542 505.97C726.542 508.17 726.882 509.74 727.812 509.74ZM732.583 505.9C731.803 505.9 731.193 505 731.193 503.86C731.193 502.7 731.803 501.8 732.583 501.8C733.343 501.8 733.953 502.7 733.953 503.86C733.953 505 733.343 505.9 732.583 505.9ZM731.863 510L736.833 502H737.263L732.293 510H731.863ZM732.583 505.64C733.073 505.64 733.233 504.81 733.233 503.86C733.233 502.89 733.073 502.07 732.583 502.07C732.073 502.07 731.913 502.89 731.913 503.86C731.913 504.81 732.073 505.64 732.583 505.64ZM736.593 510.16C735.813 510.16 735.203 509.26 735.203 508.11C735.203 506.95 735.813 506.05 736.593 506.05C737.353 506.05 737.963 506.95 737.963 508.11C737.963 509.26 737.353 510.16 736.593 510.16ZM736.593 509.89C737.083 509.89 737.243 509.07 737.243 508.11C737.243 507.14 737.083 506.32 736.593 506.32C736.083 506.32 735.923 507.14 735.923 508.11C735.923 509.07 736.083 509.89 736.593 509.89Z" fill="black"/>
</svg>
