<svg width="319" height="327" viewBox="0 0 319 327" fill="none" xmlns="http://www.w3.org/2000/svg">
<rect x="92" y="89" width="136" height="132" fill="#6DB9FF"/>
<ellipse cx="126" cy="165.5" rx="14" ry="17.5" transform="rotate(2.93682 126 165.5)" fill="white"/>
<ellipse cx="126" cy="165.5" rx="14" ry="17.5" transform="rotate(2.93682 126 165.5)" fill="white"/>
<ellipse cx="126" cy="165.5" rx="14" ry="17.5" transform="rotate(2.93682 126 165.5)" fill="white"/>
<ellipse cx="191.632" cy="165.238" rx="14" ry="17.5" transform="rotate(-7.04283 191.632 165.238)" fill="white"/>
<ellipse cx="191.632" cy="165.238" rx="14" ry="17.5" transform="rotate(-7.04283 191.632 165.238)" fill="white"/>
<ellipse cx="191.632" cy="165.238" rx="14" ry="17.5" transform="rotate(-7.04283 191.632 165.238)" fill="white"/>
<circle cx="122.349" cy="171.349" r="7" transform="rotate(2.93682 122.349 171.349)" fill="black"/>
<circle cx="188.647" cy="170.647" r="7" transform="rotate(32.0232 188.647 170.647)" fill="black"/>
</svg>
