<svg width="357" height="395" viewBox="0 0 357 395" fill="none" xmlns="http://www.w3.org/2000/svg">
<path d="M175.424 67.1766C175.927 62.9411 182.073 62.9411 182.576 67.1766L186.792 102.709C192.236 148.59 228.41 184.764 274.291 190.208L309.823 194.424C314.059 194.927 314.059 201.073 309.823 201.576L274.291 205.792C228.41 211.236 192.236 247.41 186.792 293.291L182.576 328.823C182.073 333.059 175.927 333.059 175.424 328.823L171.208 293.291C165.764 247.41 129.59 211.236 83.7086 205.792L48.1766 201.576C43.9411 201.073 43.9411 194.927 48.1766 194.424L83.7086 190.208C129.59 184.764 165.764 148.59 171.208 102.709L175.424 67.1766Z" fill="#B2A7B6"/>
<ellipse cx="152" cy="201.5" rx="14" ry="17.5" fill="white"/>
<ellipse cx="152" cy="201.5" rx="14" ry="17.5" fill="white"/>
<ellipse cx="152" cy="201.5" rx="14" ry="17.5" fill="white"/>
<ellipse cx="198.899" cy="186.41" rx="14" ry="17.5" transform="rotate(-39.066 198.899 186.41)" fill="white"/>
<ellipse cx="198.899" cy="186.41" rx="14" ry="17.5" transform="rotate(-39.066 198.899 186.41)" fill="white"/>
<ellipse cx="198.899" cy="186.41" rx="14" ry="17.5" transform="rotate(-39.066 198.899 186.41)" fill="white"/>
<circle cx="155" cy="203" r="7" fill="black"/>
<circle cx="202" cy="186" r="7" fill="black"/>
</svg>
