<svg width="372" height="395" viewBox="0 0 372 395" fill="none" xmlns="http://www.w3.org/2000/svg">
<path d="M186.108 309.193C192.63 309.273 198.749 307.262 203.799 303.779C211.398 298.537 216.557 289.971 216.986 280.266C216.99 280.243 216.994 280.22 216.996 280.196C216.997 280.173 216.998 280.15 216.999 280.128L217 280.093C217.001 280.069 217.001 280.046 217.001 280.024L218.281 245.338L251.159 256.46C251.193 256.474 251.224 256.481 251.255 256.49C251.27 256.495 251.284 256.5 251.3 256.506C266.716 261.642 283.798 253.333 289.42 237.943C295.054 222.546 287.114 205.766 271.739 200.478L271.703 200.463C271.673 200.45 271.649 200.441 271.619 200.436L238.768 189.276L260.333 161.463C270.463 148.399 268.172 129.826 255.222 120.084C242.274 110.341 223.491 113.035 213.341 126.095L191.752 153.872L172.192 125.543C163 112.246 144.428 109.074 130.79 118.482C117.152 127.891 113.521 146.379 122.696 159.705L142.202 188.035L108.569 198.352C108.558 198.36 108.544 198.367 108.528 198.372C108.507 198.38 108.485 198.385 108.466 198.388C92.7098 203.27 83.5717 219.837 88.0763 235.37C92.5802 250.901 109.046 259.625 124.819 254.874C124.834 254.869 124.847 254.866 124.86 254.863L124.918 254.849L124.943 254.842L158.588 244.569L157.355 279.241C157.357 279.258 157.356 279.276 157.355 279.294C157.354 279.313 157.353 279.331 157.356 279.348C156.827 295.607 169.713 308.992 186.108 309.193Z" fill="#7CE1A7"/>
<ellipse cx="158" cy="211.5" rx="14" ry="17.5" fill="white"/>
<ellipse cx="158" cy="211.5" rx="14" ry="17.5" fill="white"/>
<ellipse cx="158" cy="211.5" rx="14" ry="17.5" fill="white"/>
<ellipse cx="215.899" cy="187.41" rx="14" ry="17.5" transform="rotate(-39.066 215.899 187.41)" fill="white"/>
<ellipse cx="215.899" cy="187.41" rx="14" ry="17.5" transform="rotate(-39.066 215.899 187.41)" fill="white"/>
<ellipse cx="215.899" cy="187.41" rx="14" ry="17.5" transform="rotate(-39.066 215.899 187.41)" fill="white"/>
<circle cx="161" cy="213" r="7" fill="black"/>
<circle cx="219" cy="187" r="7" fill="black"/>
</svg>
