<svg width="372" height="451" viewBox="0 0 372 451" fill="none" xmlns="http://www.w3.org/2000/svg">
<path d="M66.3603 227.243C61.04 179.963 114.91 99 209.698 99C264.853 99 306.797 124.5 306.797 179.317C306.797 241 215.515 288.124 164.12 295C111.797 302 72.2968 280 66.3603 227.243Z" fill="#C3247A"/>
<ellipse cx="154" cy="188.5" rx="14" ry="17.5" fill="white"/>
<ellipse cx="154" cy="188.5" rx="14" ry="17.5" fill="white"/>
<ellipse cx="154" cy="188.5" rx="14" ry="17.5" fill="white"/>
<ellipse cx="211.899" cy="164.41" rx="14" ry="17.5" transform="rotate(-39.066 211.899 164.41)" fill="white"/>
<ellipse cx="211.899" cy="164.41" rx="14" ry="17.5" transform="rotate(-39.066 211.899 164.41)" fill="white"/>
<ellipse cx="211.899" cy="164.41" rx="14" ry="17.5" transform="rotate(-39.066 211.899 164.41)" fill="white"/>
<circle cx="152" cy="194" r="7" fill="black"/>
<circle cx="210" cy="169" r="7" fill="black"/>
</svg>
