<svg width="372" height="395" viewBox="0 0 372 395" fill="none" xmlns="http://www.w3.org/2000/svg">
<path d="M297 166.331C297 109.622 272.742 89 248.483 89C225.695 89 224.225 129.507 200.702 129.507C152.5 129.507 135.5 69.5 113.225 99.3108C101.361 115.188 120.576 137.608 130.132 147.182C139.689 156.757 158.066 184.743 117.636 203.892C77.2053 223.041 75 243.662 75 263.547C75 283.432 99.2583 307 127.192 307C239.662 307 297 223.041 297 166.331Z" fill="#FFAC5E"/>
<ellipse cx="193" cy="166.5" rx="14" ry="17.5" fill="white"/>
<ellipse cx="193" cy="166.5" rx="14" ry="17.5" fill="white"/>
<ellipse cx="193" cy="166.5" rx="14" ry="17.5" fill="white"/>
<ellipse cx="250.899" cy="142.411" rx="14" ry="17.5" transform="rotate(-39.066 250.899 142.411)" fill="white"/>
<ellipse cx="250.899" cy="142.411" rx="14" ry="17.5" transform="rotate(-39.066 250.899 142.411)" fill="white"/>
<ellipse cx="250.899" cy="142.411" rx="14" ry="17.5" transform="rotate(-39.066 250.899 142.411)" fill="white"/>
<circle cx="196" cy="168" r="7" fill="black"/>
<circle cx="254" cy="142" r="7" fill="black"/>
</svg>
