<svg width="378" height="395" viewBox="0 0 378 395" fill="none" xmlns="http://www.w3.org/2000/svg">
<path d="M88.8052 155.573C77.8465 140.586 62.2511 106 40.9329 106C23.0928 106 26.1052 158.136 57.251 201.368C129.378 285.501 182.379 289.368 230.251 289.368C278.123 289.368 298.751 265.094 298.751 250.107C298.751 235.12 284.332 213.792 206.467 213.792C128.603 213.792 99.7639 170.56 88.8052 155.573Z" fill="#FFB4F3"/>
<ellipse cx="190.022" cy="248.744" rx="14" ry="17.5" transform="rotate(24.6444 190.022 248.744)" fill="white"/>
<ellipse cx="190.022" cy="248.744" rx="14" ry="17.5" transform="rotate(24.6444 190.022 248.744)" fill="white"/>
<ellipse cx="190.022" cy="248.744" rx="14" ry="17.5" transform="rotate(24.6444 190.022 248.744)" fill="white"/>
<ellipse cx="252.693" cy="250.991" rx="14" ry="17.5" transform="rotate(-14.4217 252.693 250.991)" fill="white"/>
<ellipse cx="252.693" cy="250.991" rx="14" ry="17.5" transform="rotate(-14.4217 252.693 250.991)" fill="white"/>
<ellipse cx="252.693" cy="250.991" rx="14" ry="17.5" transform="rotate(-14.4217 252.693 250.991)" fill="white"/>
<circle cx="185.281" cy="254.281" r="7" transform="rotate(24.6444 185.281 254.281)" fill="black"/>
<circle cx="249.281" cy="254.281" r="7" transform="rotate(24.6444 249.281 254.281)" fill="black"/>
</svg>
